<?xml version="1.0" encoding="UTF-8" standalone="no"?>
<!-- Created with Inkscape (http://www.inkscape.org/) -->

<svg
   width="210mm"
   height="297mm"
   viewBox="0 0 210 297"
   version="1.1"
   id="svg1"
   inkscape:export-filename="cvlogo.svg"
   inkscape:export-xdpi="96"
   inkscape:export-ydpi="96"
   xmlns:inkscape="http://www.inkscape.org/namespaces/inkscape"
   xmlns:sodipodi="http://sodipodi.sourceforge.net/DTD/sodipodi-0.dtd"
   xmlns="http://www.w3.org/2000/svg"
   xmlns:svg="http://www.w3.org/2000/svg">
  <sodipodi:namedview
     id="namedview1"
     pagecolor="#ffffff"
     bordercolor="#000000"
     borderopacity="0.25"
     inkscape:showpageshadow="2"
     inkscape:pageopacity="0.0"
     inkscape:pagecheckerboard="0"
     inkscape:deskcolor="#d1d1d1"
     inkscape:document-units="mm" />
  <defs
     id="defs1">
    <inkscape:path-effect
       effect="skeletal"
       id="path-effect17"
       is_visible="true"
       lpeversion="1"
       pattern="M 0,4.9921382 C 0,2.2364779 2.2364779,0 4.9921382,0 c 2.7556604,0 4.9921383,2.2364779 4.9921383,4.9921382 0,2.7556604 -2.2364779,4.9921383 -4.9921383,4.9921383 C 2.2364779,9.9842765 0,7.7477986 0,4.9921382 Z"
       copytype="single_stretched"
       prop_scale="1"
       scale_y_rel="false"
       spacing="0"
       normal_offset="0"
       tang_offset="0"
       prop_units="false"
       vertical_pattern="false"
       hide_knot="false"
       fuse_tolerance="0" />
  </defs>
  <g
     inkscape:label="Lager 1"
     inkscape:groupmode="layer"
     id="layer1">
    <path
       style="fill:#800000;stroke-width:0.264583"
       id="path16"
       d="m 82.26391,61.648921 c 2.61761,-1.147585 5.638475,-1.14845 8.446656,-1.248568 5.178206,0.0168 10.340034,0.795475 15.336914,2.141825 0.95691,0.257829 1.8964,0.576416 2.8446,0.864627 2.60887,0.956612 3.09005,1.048329 5.59509,2.312964 0.87612,0.442298 1.77295,0.861483 2.57655,1.4249 0.3334,0.233749 -1.38821,-0.749639 -1.14628,-0.422124 0.54563,0.738664 1.4471,1.133615 2.12746,1.750417 0.64454,0.584324 1.22829,1.232389 1.84243,1.848585 3.85822,4.215599 5.3768,9.761265 6.52843,15.217921 0.85109,4.794737 0.56131,9.705546 -0.47493,14.450277 -0.1924,0.880985 -0.45652,1.744755 -0.68478,2.617135 -0.75254,2.26864 -1.48678,4.55104 -2.4905,6.72521 -0.93453,2.02431 -2.0823,3.95148 -3.20185,5.87588 -1.69766,3.02921 -3.70932,5.89324 -5.24813,9.01178 -0.28961,0.58694 -0.5373,1.19365 -0.80595,1.79048 -1.29713,2.98271 -2.41785,6.04912 -3.11463,9.22954 -0.55211,2.72628 -0.43858,5.44033 0.12036,8.14561 0.34881,1.67986 1.13267,3.2101 1.7643,4.79077 1.38862,3.4751 -0.40297,-0.89241 0.97464,2.44538 1.23434,2.50574 2.91066,4.78336 4.60906,6.99397 1.53154,2.09606 3.18217,4.11186 4.86721,6.08798 0.29643,0.42683 0.8984,0.9523 0.83544,1.55188 -0.0582,0.55466 -0.84628,1.38096 -1.16743,1.75754 -2.12137,2.1822 -4.57222,4.02871 -6.95996,5.91045 -2.84807,2.19649 -5.71101,4.36277 -8.42368,6.72708 -2.79268,2.22776 -5.04405,5.03288 -7.247496,7.82152 -2.094611,2.70137 -2.945995,5.46803 -3.426722,8.79309 -0.343723,3.39583 -0.280302,6.82047 -0.305869,10.23036 -0.04646,3.12777 0.320006,6.24479 0.794599,9.33085 0.467,3.07317 0.811747,6.16123 1.259412,9.23692 0.447304,3.07987 0.704426,6.17856 0.549097,9.28854 -0.376637,2.43732 -1.3487,4.67734 -3.029571,6.50176 -0.359728,0.39044 -0.767461,0.73376 -1.151192,1.10064 -2.811846,2.41803 -5.936636,4.49382 -9.327835,6.01153 -0.846714,0.37895 -1.719834,0.6959 -2.579751,1.04385 -4.807357,1.64593 -9.865376,2.3705 -14.940949,2.14923 -0.915204,-0.0399 -1.82612,-0.14851 -2.739178,-0.22277 -2.633419,-0.38886 -5.137185,-1.22797 -7.50221,-2.44101 -0.823196,-0.42222 -1.667103,-0.82408 -2.413014,-1.37138 -0.250608,-0.18388 1.113055,0.4808 0.896012,0.25829 -0.829146,-0.85001 -1.864365,-1.4711 -2.796548,-2.20665 -5.921208,-5.03199 -11.167824,-10.8732 -15.29575,-17.47265 -1.151337,-1.84068 -2.172745,-3.7595 -3.259119,-5.63924 -2.758763,-5.15392 -5.31899,-10.43702 -7.303072,-15.94357 -1.054021,-2.9253 -1.257807,-3.97873 -1.979412,-6.82219 0,0 -3.638047,-1.72657 -3.638047,-1.72657 v 0 c 0.956145,2.96445 1.257113,4.0624 2.499385,7.11154 2.24671,5.51453 4.921011,10.84734 7.641671,16.13861 0.997929,1.85033 1.91864,3.74443 2.99379,5.55099 3.894034,6.54306 8.976582,12.34248 14.695408,17.33945 4.193984,3.42965 2.415945,2.16124 8.769821,6.01638 3.093593,1.87701 6.431679,3.23639 10.042977,3.68042 2.465141,0.15554 3.094834,0.25844 5.602248,0.15298 4.139668,-0.17412 8.224845,-0.96939 12.162607,-2.24642 0.892567,-0.34043 1.800725,-0.64252 2.677702,-1.02131 3.475863,-1.50133 6.661034,-3.64837 9.627772,-5.97613 0.401527,-0.37899 0.827744,-0.73342 1.204579,-1.13696 1.760445,-1.88521 2.786305,-4.22453 3.151355,-6.76343 0.12089,-3.13242 0.0343,-6.26188 -0.4994,-9.35924 -0.45094,-3.07329 -0.79738,-6.15723 -1.23973,-9.2321 -0.48596,-3.07329 -0.89991,-6.17059 -0.8681,-9.28984 -0.0308,-3.38761 -0.0556,-6.78438 0.30333,-10.15807 0.4749,-3.26351 1.2332,-5.93377 3.25839,-8.61855 2.1717,-2.78004 4.43257,-5.53391 7.19128,-7.75821 2.70346,-2.3664 5.58699,-4.49527 8.42008,-6.70177 0.46591,-0.36426 0.93182,-0.72853 1.39772,-1.09279 0.4507,-0.36245 0.89743,-0.7299 1.35209,-1.08736 1.51402,-1.19035 3.12119,-2.27177 4.45941,-3.67061 1.34735,-1.43846 2.15764,-2.22082 0.62614,-3.92251 -1.74825,-1.95121 -3.45837,-3.95522 -4.96429,-6.09913 -1.6998,-2.17893 -3.39793,-4.40559 -4.64411,-6.88015 -0.96308,-2.20327 -0.0861,-0.13486 -0.9825,-2.44313 -0.60884,-1.56785 -1.39769,-3.07073 -1.79486,-4.71511 -0.28323,-1.24919 -0.54416,-2.52757 -0.59147,-3.81351 -0.0514,-1.3981 0.16138,-2.79432 0.36131,-4.17214 0.62827,-3.1749 1.64866,-6.25186 2.91476,-9.22971 0.26034,-0.58941 0.49893,-1.18892 0.78102,-1.76823 1.5196,-3.12069 3.49743,-6.00155 5.15886,-9.04403 0.70325,-1.19404 1.62215,-2.71871 2.26469,-3.94998 1.463,-2.80351 2.49394,-5.788 3.36924,-8.82031 0.21851,-0.89019 0.47446,-1.77202 0.65553,-2.67057 0.19182,-0.95188 0.3251,-1.91485 0.46221,-2.87613 0.55301,-3.87731 0.88607,-7.817284 0.12404,-11.694096 -0.62374,-2.838789 -1.30565,-5.625103 -2.33087,-8.352534 -0.66434,-1.767366 -1.41016,-3.529121 -2.47199,-5.103804 -0.4719,-0.699818 -1.06533,-1.3095 -1.598,-1.964251 -1.25175,-1.276056 -2.51473,-2.685759 -4.00668,-3.699952 -4.40443,-2.99403 -9.02904,-5.681887 -14.11176,-7.32787 -0.93345,-0.267142 -1.85994,-0.559962 -2.80036,-0.801426 -5.090624,-1.307065 -10.337192,-2.07523 -15.591571,-2.198918 -3.027542,0.04811 -6.216436,-0.03443 -9.082704,1.086213 z" />
    <path
       style="fill:#800000;stroke:none;stroke-width:0.264583"
       d="m 116.26897,94.517976 c 2.75566,0 4.99214,1.948889 4.99214,4.350199 0,2.401315 -2.23648,4.350195 -4.99214,4.350195 -2.75566,0 -4.99214,-1.94888 -4.99214,-4.350195 0,-2.40131 2.23648,-4.350199 4.99214,-4.350199 z"
       id="path17"
       inkscape:path-effect="#path-effect17"
       inkscape:original-d="m 116.26897,94.517976 v 8.700394" />
  </g>
</svg>
