<?xml version="1.0" encoding="utf-8"?>
<!-- Generator: Adobe Illustrator 27.5.0, SVG Export Plug-In . SVG Version: 6.00 Build 0)  -->
<svg version="1.1" xmlns="http://www.w3.org/2000/svg" xmlns:xlink="http://www.w3.org/1999/xlink" x="0px" y="0px"
preserveAspectRatio="none"	viewBox="0 0 500 500" style="enable-background:new 0 0 500 500;" xml:space="preserve">
<g id="BACKGROUND">
	<rect style="fill:#F4EFD9;" width="500" height="500"/>
</g>
<g id="OBJECTS">
	<circle style="fill:#231F20;" cx="434.867" cy="125.25" r="22.75"/>
	<path style="fill:none;stroke:#231F20;stroke-miterlimit:10;" d="M189,488"/>
	<g>
		<path style="fill:#231F20;" d="M56.317,401.986c-3.111-4.527,2.769-11.102,5.961-13.828c-6.366,2.376-12.965,7.71-6.414,14.139
			L56.317,401.986z"/>
		<path style="fill:#231F20;" d="M62.548,392.238c2.767-0.436,4.957-2.873,6.05-5.357c3.92,3.57-2.638,5.278-5.071,5.616
			L62.548,392.238z"/>
		<path style="fill:#231F20;" d="M70.592,370.581c1.088-5.014,6.31-6.337,10.18-4.197L70.592,370.581z"/>
		<path style="fill:#231F20;" d="M79.232,371.708c0.101,2.863,4.515,2.496,4.08-0.271L79.232,371.708z"/>
		<path style="fill:#231F20;" d="M58.986,377.357c-0.22-2.648,1.614-4.442,3.979-3.135L58.986,377.357z"/>
		<path style="fill:#231F20;" d="M44.33,303.989c-2.666-4.307,1.678-10.079,5.742-12.049L44.33,303.989z"/>
		<path style="fill:#231F20;" d="M56.537,290.544c3.401,1.439,5.485-3.816,5.675-6.611L56.537,290.544z"/>
		<path style="fill:#231F20;" d="M54.583,278.944c-0.748-2.341,2.388-4.632,1.724-1.222L54.583,278.944z"/>
		<path style="fill:#231F20;" d="M33.378,310.069c-1.534-1.573-1.344-4.367,0.915-4.883L33.378,310.069z"/>
		<path style="fill:#231F20;" d="M34.579,294.624c-0.184-3.965,4.125-0.648,0.696,0.242L34.579,294.624z"/>
		<path style="fill:#231F20;" d="M45.934,318.848c4.466-3.13,1.425,4.136-0.242,0.696L45.934,318.848z"/>
		<path style="fill:#231F20;" d="M38.488,358.064c-1.474-0.737-1.229-2.457,0.737-2.702c0.491,0.983,0.246,1.965-0.491,2.702H38.488
			z"/>
	</g>
	<path style="fill:#231F20;" d="M424.617,193.75c1.75-2,6.25-5.75,6.75-8.5c0.5-2.5-0.587-4.201-3.337-3.451
		c1.25-4.5-3.163-4.049-5.413-2.299c-2.5,2-3.75,5.75-6,8.5c0.75-2.75,4-9,2-11.25c-3.75-4.25-7.5,4.5-8,7.25
		c0.549,2.816,0.199,5.825-0.91,8.526c1.01,0.839,1.639,1.99,1.967,3.168c0.187,0.656,0.273,1.335,0.275,2.007
		c-0.02,0.672-0.091,1.347-0.332,1.965c0.07-1.313-0.216-2.572-0.667-3.729c-0.471-1.141-1.154-2.22-2.109-2.857l-0.346-0.231
		l0.166-0.382c0.574-1.317,1.002-2.697,1.32-4.112c0.155-0.708,0.287-1.425,0.386-2.151c0.125-0.725,0.174-1.46,0.249-2.204
		c-8-5.5-10.75,12.5-9.25,17c-1.497,1.283-7.927,6.04-7.879,8.641c-1.671,1.521-3.116,3.189-6.121,4.859
		c-13.467,7.481-19.25,13.5-33.5,17.5c-5.722,1.606-10.5,2.75-16.25,2.75c-2,0-2.5,0.75-4.25,0c-1-0.25-2-2-3-2.5
		c-0.836-0.209-1.627-0.236-2.394-0.15c0.465,1.953,0.857,3.931,1.089,5.932c0.243,2.034,0.408,4.089,0.342,6.154l-0.018,0.553
		l-0.547-0.131c-0.652-0.156-1.289-0.433-1.838-0.825c-0.551-0.39-1.019-0.872-1.421-1.379c-0.656-0.824-1.158-1.709-1.673-2.548
		c-0.071,0.096-0.15,0.182-0.219,0.283c-0.204,0.289-0.387,0.608-0.687,0.939c-0.28,0.35-0.854,0.595-1.304,0.573
		c-0.456-0.003-0.838-0.114-1.212-0.225l0.034,0.009c-0.976-0.253-1.643-0.879-2.262-1.426c-0.618-0.553-1.213-1.112-1.93-1.386
		c-0.966-0.438-2.04-0.663-3.116-0.87c-1.08-0.201-2.185-0.326-3.263-0.586c1.103,0.095,2.203,0.126,3.312,0.215
		c1.104,0.081,2.223,0.252,3.299,0.658c0.886,0.286,1.556,0.868,2.202,1.371c0.646,0.505,1.286,1.015,1.953,1.154l0.032,0.009
		c0.325,0.088,0.656,0.161,0.93,0.151c0.278-0.019,0.431-0.083,0.621-0.299c0.374-0.443,0.765-1.183,1.284-1.752l0.424-0.465
		l0.351,0.519c0.712,1.052,1.274,2.144,1.992,3.07c0.586,0.767,1.313,1.367,2.16,1.723c0.071-1.804,0.069-3.62-0.041-5.435
		c-0.129-1.991-0.294-3.987-0.51-5.984c-1.063,0.121-2.079,0.464-3.093,0.899l-1.432-2.313c0.737-1.172,1.722-2.15,2.932-2.688
		c1.5-0.75,3.25,0.25,5-1c1-1,3.25-4.5,4-5.75c1-2,1-3.5,1.75-5.5c0.75-1.75,2-3,2.5-5c0.5-1.75-0.25-4,0-5.75
		c0.5-2.5,1.5-3.25,2.25-5.5c-0.75,0.25-1.75-0.25-2.5,0c1.5-3.5,1.25-13.5-3.75-6.5c-0.761-0.761-1.634-1.275-2.581-1.596
		c0.88-0.777,1.746-1.569,2.581-2.404c5-5,9.75-9.75,15.5-13.5c1.87-1.47,5.95-3.583,9.386-5.842
		c-0.322-0.347-0.617-0.719-0.889-1.103c-0.517-0.721-0.944-1.497-1.329-2.29c-0.367-0.802-0.69-1.624-0.924-2.477
		c-0.237-0.849-0.409-1.727-0.41-2.621c0.796,1.585,1.5,3.125,2.238,4.673c0.73,1.553,1.45,3.074,2.236,4.659
		c2.096,2.075,8.477-5.229,10.043-6.773c4.267,1.829,21.752,0.669,17.969-7.288c-0.519-0.485-1.162-0.669-1.811-0.676
		c-0.656-0.013-1.316,0.096-1.987,0.234c-0.348,0.071-0.687,0.114-0.942,0.22c-0.288,0.111-0.594,0.248-0.904,0.4
		c-0.627,0.293-1.267,0.659-2.224,0.695c-1.011-0.138-1.798-0.664-2.519-1.125c-0.721-0.479-1.414-0.94-2.266-1.186
		c0.893-0.09,1.792,0.248,2.587,0.591c0.786,0.347,1.536,0.708,2.262,0.76c0.5-0.024,1.12-0.353,1.746-0.624
		c0.322-0.141,0.652-0.297,1.026-0.406c0.176-0.05,0.42-0.101,0.586-0.114l0.524-0.058c0.706-0.064,1.45-0.097,2.181,0.066
		c0.291,0.065,0.569,0.155,0.831,0.301c0.236,0.131,0.394,0.346,0.677,0.384c0.132,0.017,0.277-0.018,0.409-0.039
		c0.283-0.045,0.563-0.101,0.842-0.165c0.689-0.157,1.368-0.357,2.035-0.588c0.74-0.257,1.467-0.554,2.168-0.904
		c0.667-0.333,1.318-0.715,1.9-1.184c0.489-0.394,0.949-0.861,1.23-1.429c0.253-0.513,0.32-1.089,0.157-1.64
		c-0.159-0.536-0.497-1.004-0.88-1.403c-2.076-2.179-8.574,0.54-11.378,1.06c2.927-2.015,6.768-2.949,8.969-5.274
		c1.931-2.097,3.238-5.751-1.35-4.879c0.976-2.678-1.121-4.609-3.654-4.318c-2.781,0.271-6.892,4.443-9.031,6.021
		c1.371-1.391,5.211-5.336,3.404-7.745c-2.948-3.758-5.958,2.264-7.349,3.904c-3.342,3.986-11.917,7.537-10.733,14.409
		c-3.423,1.545-10.385,3.998-11.39,7.758c-9.046,4.891-14.284,8.244-26.438,14.517c-7.209,3.721-13,10-19,15
		c-3,2.25-6.75,4.75-9.75,6.75c-2.75,1.75-4.75,3.75-7.5,5.5c-3.526,2.084-7.254,6.532-10.138,10.971
		c-3.346,1.2-5.039,3.456-7.862,6.279c-5.75,6-14,9-20,14.75c-2.5,2.5-3.75,4.25-7,5.25c-3.75,1.25-5.75,0.5-8.25,3.75
		c-3,4.5-11.685,6.539-14.25,6.5c0.186,0.441,0.38,0.874,0.575,1.306c-3.11,0.585-5.934,0.883-9.325,0.694
		c-7.25-0.25-14.25,0-21.25-0.25c-6.25-0.25-22-0.75-22-0.75c0,1.158-0.021,2.315-0.038,3.474
		c-9.96,1.428-19.147-5.137-28.712-6.224c-11.75-1.5-24,1.25-35.5,2.25c-3.021,0.178-6.042,0.231-9.063,0.335
		c-1.102-1.418-4.289-2.525-6.187-2.335c-1.75,0-2.75,1.5-4,1.75c-1.75,0.5-3.5,0-5.25,0c-3.5,0-7,0.25-10.5,0.75
		c-6.5,1-13.75,3.75-16.25,10.5c-2.75,7.5,3.75,11.5,10.75,9c5.75-2,10-5.5,16.25-6.75c2.5-0.5,6,0,8.5-0.75
		c1.538-0.56,2.135-1.205,2.584-2.227c-0.241,0.051-0.48,0.106-0.725,0.147c-0.403,0.077-0.811,0.13-1.231,0.166
		c-0.424,0.032-0.843,0.056-1.397-0.092l-0.603-0.318c-0.19-0.131-0.36-0.305-0.537-0.461c-0.143-0.191-0.291-0.389-0.404-0.6
		c-0.078-0.224-0.202-0.446-0.228-0.678c-0.161-0.937,0.058-1.818,0.398-2.583c0.337-0.773,0.808-1.461,1.348-2.073
		c0.542-0.608,1.169-1.15,1.879-1.532c-1.051,1.197-1.887,2.532-2.393,3.935c-0.233,0.697-0.388,1.424-0.253,2.054
		c0.092,0.635,0.536,1.097,1.146,1.421c0.268,0.091,0.657,0.121,1.029,0.143c0.39,0.018,0.789,0.011,1.192,0.016
		c0.746,0,1.512-0.01,2.271,0.085c8.131-0.629,15.881-0.851,23.925,2.597c6,2.25,11.5,3.5,18,3.25c3.25,0,5.25-0.25,8.25,1
		s5.25,2.75,8.75,3.25c5.038,0.593,13.938,1.01,20.354,1.251c0.007,0.015,0.014,0.03,0.022,0.045
		c-0.374-1.203-0.742-2.409-1.086-3.626c-0.598-2.007-0.887-4.115-1.016-6.189c-0.129-2.084-0.049-4.165,0.144-6.231
		c0.193,2.067,0.373,4.124,0.63,6.158c0.287,2.034,0.602,4.04,1.205,5.993c0.545,1.987,1.126,3.971,1.599,5.994
		c0.237,1.02,0.461,2.059,0.605,3.108c0.106,0.408,0.217,0.81,0.294,1.247c0.25,2.75,0.25,5.5,0.25,8.25c5.84-0.185,26,1.25,32,4.75
		c-3,4.25-19.75,12.5-20,15.5c0,2.5,1.75,5.25,2.75,7.5c0.709,1.701,1.411,3.348,2.117,4.97c-0.84,1.531-1.772,2.986-2.867,4.28
		c-5.25,6-12.25,4.5-19.25,5.75c-5.5,1-10.25,3.25-15,6.25c-5.75,3.75-10.25,5-17.25,5c-0.939,0-3.092-0.274-5.241-0.464
		c-2.673-2.62-7.529-4.545-10.759-3.536c-2.75,1-3.25,3.25-3.75,6.25c-0.75,4-0.25,4.5-3.5,7c-4.5,4-11.75,5-15.75,9.25
		c-3,3.25-3.75,11.5-2.75,15.5c3.578,4.068,14-9.75,20.25-12.5c4.736-2.029,8.668-3.493,11.802-6.546
		c0.746-0.278,1.538-0.523,2.085-0.98c0.539-0.441,0.728-1.15,0.931-1.906c0.106-0.374,0.185-0.735,0.252-1.125
		c0.074-0.384,0.169-0.784,0.18-1.091c0.005-0.156-0.015-0.244-0.048-0.288c-0.032-0.052-0.146-0.138-0.285-0.218
		c-0.286-0.16-0.644-0.314-0.996-0.465c-0.499-0.173-1.277,0.082-2.188-0.021c-0.47-0.034-1.033-0.384-1.242-0.835
		c-0.265-0.493-0.183-1.032-0.044-1.433c0.305-0.822,0.84-1.429,1.396-1.986c0.579-0.529,1.18-1.057,1.906-1.355
		c-0.615,0.466-1.122,1.044-1.575,1.648c-0.443,0.602-0.858,1.254-1.029,1.906c-0.079,0.324-0.065,0.622,0.069,0.806
		c0.161,0.237,0.324,0.328,0.625,0.356c0.617,0.068,1.386-0.279,2.432-0.001c0.371,0.155,0.743,0.294,1.145,0.517
		c0.198,0.125,0.427,0.263,0.616,0.547c0.189,0.295,0.206,0.624,0.193,0.86c-0.034,0.487-0.138,0.863-0.226,1.256
		c-0.086,0.39-0.205,0.799-0.347,1.181c-0.132,0.385-0.287,0.772-0.506,1.154c-0.213,0.383-0.543,0.744-0.935,0.963
		c-0.311,0.168-0.627,0.266-0.944,0.338c9.133-1.063,18.399-2.633,27.482-3.282c5.5-0.5,11,0,16.25-1.5c5.75-1.5,9.75-5.5,16-6.25
		c5.25-0.5,8.25,0,12.25-3.75c0.665-0.577,1.302-1.211,1.929-1.864c1.132-0.627,2.213-1.381,3.265-2.205
		c0.328-1.352,0.036-2.721-0.435-3.978c-0.451-1.275-1.085-2.485-1.767-3.665c-0.693-1.176-1.4-2.347-2.131-3.518
		c-0.356-0.591-0.711-1.188-1.046-1.805c-0.326-0.606-0.66-1.185-1.013-1.766c-1.399-2.34-3.142-4.398-4.853-6.616
		c-1.633-2.29-2.651-4.865-4.616-6.833c1.121,0.818,2.005,1.926,2.831,3.034c0.806,1.128,1.538,2.294,2.389,3.341
		c1.792,2.024,3.645,4.168,5.098,6.552c0.367,0.592,0.706,1.215,1.028,1.824c0.314,0.597,0.658,1.187,1.003,1.781
		c0.674,1.197,1.389,2.385,1.997,3.637c0.612,1.247,1.179,2.531,1.556,3.884c0.328,1.342,0.517,2.834-0.04,4.126
		c3.302-2.586,6.299-5.897,9.555-8.43c5-4,10.25-8.25,14.75-13c4.982-4.705,7.458-5.985,11.25-10
		c0.179-0.179,0.374-0.341,0.573-0.497c0.355-0.279,0.725-0.538,1.098-0.792c0.453-0.309,0.912-0.609,1.372-0.907
		c0.513-0.332,1.028-0.662,1.541-0.994c0.537-0.347,1.072-0.697,1.603-1.054c0.526-0.353,1.047-0.714,1.559-1.087
		c0.48-0.35,0.953-0.711,1.408-1.092c0.402-0.337,0.792-0.689,1.152-1.071c0.295-0.314,0.573-0.649,0.789-1.023
		c0.089-0.154,0.168-0.316,0.225-0.485c0.026-0.077,0.048-0.155,0.064-0.234c0.033-0.162-0.01-0.275-0.076-0.424
		c-0.046-0.105-0.095-0.21-0.146-0.313c-0.102-0.207-0.213-0.411-0.329-0.611c-0.227-0.391-0.471-0.775-0.729-1.147
		c-0.5-0.723-1.014-1.438-1.549-2.143c-1.054-1.427-2.155-2.82-3.138-4.376c1.548,1.005,2.826,2.327,3.939,3.777
		c0.539,0.739,1.043,1.514,1.429,2.359c0.21,0.457,0.392,0.945,0.508,1.445c0.68-0.354,1.761-0.685,2.875-1.052
		c-0.965-1.169-1.861-2.388-2.77-3.581c-1.94-2.688-4.242-5.018-6.598-7.377c-2.33-2.363-4.727-4.698-6.858-7.287
		c-1.06-1.297-2.07-2.637-2.99-4.036c-0.88-1.426-1.698-2.887-2.368-4.414c1.701,2.868,3.698,5.514,5.934,7.95
		c2.239,2.433,4.631,4.728,6.991,7.084c1.172,1.186,2.333,2.383,3.456,3.631c1.125,1.253,2.142,2.61,3.067,3.997
		c1.847,2.755,3.627,5.523,6.054,7.803c0.531,0.395,0.996,0.66,1.334,0.703c1.5,0.25,8.082-14.25,20.082-16.5
		c5.522-1.035,11-3.25,16.25-5.75c5.5-2.25,10-6.25,15.25-9c5.5-3.25,11.5-6,17.5-8.75c12-5.75,21.25-5.25,33.75-9.75
		c10.989-4.037,24.79-18.932,33.652-28.996c-0.754-0.398-1.429-0.91-2.056-1.454c-1.475-1.325-2.65-2.858-3.762-4.466
		c0.847,0.513,1.586,1.16,2.306,1.799c0.723,0.638,1.408,1.303,2.12,1.921c0.7,0.63,1.42,1.226,2.186,1.73
		c0.711,0.449,1.473,0.813,2.366,0.866c3.718-0.915,6.653-7.435,8.438-10.649c6.75,1.75,11-6.5,15.25-9.5c1.75-1.25,8-3.75,4.5-7
		C430.367,189,426.117,192.5,424.617,193.75z M382.85,144.396c1.046-0.742,2.1-1.481,3.186-2.194
		c1.096-0.695,2.223-1.369,3.438-1.887c1.202-0.525,2.521-0.899,3.834-0.861c-1.26,0.349-2.383,0.937-3.487,1.557
		c-1.096,0.637-2.168,1.326-3.242,2.031c-1.083,0.69-2.168,1.399-3.318,2.018c-1.14,0.626-2.36,1.174-3.643,1.441
		C380.76,145.869,381.793,145.122,382.85,144.396z M418.451,191.333c1.316-1.869,2.853-3.524,4.441-5.125
		c1.61-1.578,3.27-3.106,5.138-4.409c-1.325,1.875-2.858,3.525-4.441,5.125C421.984,188.502,420.328,190.025,418.451,191.333z"/>
	<g>
		<defs>
			<rect id="SVGID_1_" width="500" height="500"/>
		</defs>
		<clipPath id="SVGID_00000150076274393787873180000005842636458881573023_">
			<use xlink:href="#SVGID_1_"  style="overflow:visible;"/>
		</clipPath>
		<g style="clip-path:url(#SVGID_00000150076274393787873180000005842636458881573023_);">
			<path style="fill:#231F20;" d="M510.334,421.333c1-1.666,1.333-3.333,1-5.333c-1,2-2.667,4.333-5,5
				c0.666-0.667,0.666-1.333,1.666-2.333c-2,0.666-4,1.666-6,2.333c0.667-1.667,1-3,2.334-4.333c-3,0.666-5,2.666-7.334,2.666
				c0.334-1,0-2,0.667-3c-2,2-4.333,3.334-6.667,5c0.334-0.666,0.667-1.666,1-2.333c-1.666-0.333-3,0.333-4.333,2
				c0.667-1.667,0.667-3,0.333-4.667c-1,2-2,4.334-3.666,5.667c0-1-0.334-3,0-4.333c-2.334,1-4.334,3.333-7,3
				c1-0.667,2.333-2.667,3-3.667c-2.667-0.333-4.334,2-5.667,4c0.333-1.333-0.333-3,0-4.333c-0.667,1.333-2,2.666-2.333,4
				C472,420,471,418.333,471,417.333c-1.333,1.667-3,3.667-5,4c0.667-0.666,1-2.666,1.667-3.666c-2,0.333-3.667,1.333-5,2.666
				c0.333-1.333-0.333-3-0.333-4.333c-0.667,1.333-2,3.333-3,4.333c0-0.666-0.667-2-0.667-3c-0.333,0.667-2,2.334-2.333,3.667
				c-0.667-1.667-1-3,0-4.667c-3,1-5,3.667-7.667,5c0.333-1.666,0.667-3,1.667-4.666c-1.667,1.333-3.667,2.666-5.334,4
				c1-1.667,1-3,0.667-4.667c-1,1.667-2,3.667-3.333,5.333c0.333-1.666,0.333-3.666,0.333-5.333
				c-1.333,2.333-3.333,3.667-5.667,4.667c0.667-1,0.667-2.334,1.334-3.334C436,418,434,419.667,432.667,421.667
				c0.333-0.667,0.667-1.667,1-2.667c-2.333,0-5,1-6.333,3c0.333-1.667-0.334-3.333-0.334-4.667c-1,1.667-2.333,3-3.666,4
				C423.334,420,423,419,423,418c-1,1.333-2.666,2.667-4,3.333c0.334-1.333,0-2.333,0.334-3c-1.667,0.334-3.334,1.667-4.667,3
				c0-1.333-0.667-3-1-4.333c-1.333,1.667-3,3-5,4.333c1-1,1.333-2.666,1.667-3.666c-2.334,0-4,2-5.334,3.666
				c0-1.666-0.666-3.333-1-4.666C403,419,400.667,421,398,421c0.667-0.667,1-2.333,1.334-3.333c-1.667,1-3.334,1.666-5,2.666
				c0.333-1.333-0.667-3-0.334-4.333c-1.333,2.333-3.333,4.333-5.666,5.333C389,420,388.667,418,389,417
				c-1.666,0.667-2.666,0.667-3.666,2.667c0-1.334-0.334-2.667-0.334-4c-0.666,2.333-2.666,5-5,6c0.334-1,0.334-2.667,0.334-4
				c-0.667,1-2.334,1.666-3,3c-0.334-1-1-2.667-1.334-3.667c-1,1.333-2.333,3-3.666,4c0.333-1,0.333-2.667,0.333-4
				c-1,1-2.333,2-3,3.667c0-1.334-1-2.667-1.333-3.667c-0.667,1.667-2,3.333-3.667,4.333c0.247-0.989,0.128-1.98,0.186-2.97
				c0.047-0.288,0.103-0.575,0.147-0.863c-0.013,0.013-0.025,0.022-0.039,0.034c0.014-0.067,0.023-0.134,0.039-0.201
				c-0.266,0.304-0.537,0.591-0.812,0.87c-1.738,1.31-3.526,1.432-5.688,2.297c1-1,1.5-2.5,2-3.5c-2.5,1.5-5,3-8,4
				c0.5-1.5,1-3.5,1.5-4.5c-2,2-4,3-5.5,4c0.5-1,0.5-2.5,1-3.5c-3,2-6,4-10,4c0.5-1,0.5-2.5,1-3.5c-1.5,2.5-3.5,3.5-6,5
				c0.5-1,0-2.5,0-4c-1.5,2.5-4.5,3.5-7,3.5c0.5-1,0.5-3,1-4c-1.5,1-4.5,1.5-6,2.5c0.5-1.5,0.5-3,1-4.5c-3,2.5-6.5,4-10,4.5
				c0.5-1,1-2,1-3c-1,1.5-3.5,2.5-5,4.5c0-1.5-0.5-3-0.5-4.5c-1.5,3-4.5,4.5-7.5,4.5c1-2,0.5-4.5,1.5-6c-1.5,1.5-3.5,2.5-4.5,4
				c0-0.5-0.5-2-0.5-3c-1,1.5-3,2.5-4,4c1-1.5,1-3,1.5-4c-1.5,1.5-3.5,2.5-5,4c0-1.5-1-3.5-1-5c-1,1.5-3,3-4,4c0.5-1.5,0-3.5,0.5-5
				c-1.5,1.5-4,3-5,4.5c0-1.5-1.5-3-1.5-4.5c-1,3-3.5,5.5-6,7c1-2,1-4,1.5-5.5c-1.5,1.5-4,2.5-5.5,4c1-2,1-3.5,1.5-5.5
				c-3,3.5-7.5,7.5-12,8.5l2.5-1c1-2.5,1-4.5,0.5-7c-2.347,1.592-4.479,3.426-6.441,5.425c0.818-1.532,1.081-3.088,0.775-4.925
				c-1,2-2.667,4.333-5,5c0.666-0.667,0.666-1.333,1.666-2.333c-2,0.666-4,1.666-6,2.333c0.667-1.667,1-3,2.333-4.333
				c-3,0.666-5,2.666-7.333,2.666c0.333-1,0-2,0.667-3c-2,2-4.334,3.334-6.667,5c0.333-0.666,0.667-1.666,1-2.333
				c-1.667-0.333-3,0.333-4.333,2c0.666-1.667,0.666-3,0.333-4.667c-1,2-2,4.334-3.667,5.667c0-1-0.333-3,0-4.333
				c-2.333,1-4.333,3.333-7,3c1-0.667,2.334-2.667,3-3.667c-2.666-0.333-4.333,2-5.666,4c0.333-1.333-0.334-3,0-4.333
				c-0.667,1.333-2,2.666-2.334,4C217,420,216,418.333,216,417.333c-1.333,1.667-3,3.667-5,4c0.667-0.666,1-2.666,1.667-3.666
				c-2,0.333-3.667,1.333-5,2.666c0.333-1.333-0.334-3-0.334-4.333c-0.666,1.333-2,3.333-3,4.333c0-0.666-0.666-2-0.666-3
				c-0.334,0.667-2,2.334-2.334,3.667c-0.666-1.667-1-3,0-4.667c-3,1-5,3.667-7.666,5c0.333-1.666,0.666-3,1.666-4.666
				c-1.666,1.333-3.666,2.666-5.333,4c1-1.667,1-3,0.667-4.667c-1,1.667-2,3.667-3.334,5.333c0.334-1.666,0.334-3.666,0.334-5.333
				c-1.334,2.333-3.334,3.667-5.667,4.667c0.667-1,0.667-2.334,1.333-3.334C181,418,179,419.667,177.667,421.667
				c0.333-0.667,0.666-1.667,1-2.667c-2.334,0-5,1-6.334,3c0.334-1.667-0.333-3.333-0.333-4.667c-1,1.667-2.333,3-3.667,4
				C168.333,420,168,419,168,418c-1,1.333-2.667,2.667-4,3.333c0.333-1.333,0-2.333,0.333-3c-1.666,0.334-3.333,1.667-4.666,3
				c0-1.333-0.667-3-1-4.333c-1.334,1.667-3,3-5,4.333c1-1,1.333-2.666,1.666-3.666c-2.333,0-4,2-5.333,3.666
				c0-1.666-0.667-3.333-1-4.666C148,419,145.667,421,143,421c0.667-0.667,1-2.333,1.333-3.333c-1.666,1-3.333,1.666-5,2.666
				c0.334-1.333-0.666-3-0.333-4.333c-1.333,2.333-3.333,4.333-5.667,5.333C134,420,133.667,418,134,417
				c-1.667,0.667-2.667,0.667-3.667,2.667c0-1.334-0.333-2.667-0.333-4c-0.667,2.333-2.667,5-5,6c0.333-1,0.333-2.667,0.333-4
				c-0.666,1-2.333,1.666-3,3c-0.333-1-1-2.667-1.333-3.667c-1,1.333-2.333,3-3.667,4c0.334-1,0.334-2.667,0.334-4
				c-1,1-2.334,2-3,3.667c0-1.334-1-2.667-1.334-3.667c-0.666,1.667-2,3.333-3.666,4.333c0.333-1.333,0-2.666,0.333-4
				c-2.047,2.341-4.352,3.91-6.913,5.161c0.345-1.661,0.66-3.324,0.913-4.994c-2,2-4,2-6.5,3c1-1,1.5-2.5,2-3.5c-2.5,1.5-5,3-8,4
				c0.5-1.5,1-3.5,1.5-4.5c-2,2-4,3-5.5,4c0.5-1,0.5-2.5,1-3.5c-3,2-6,4-10,4c0.5-1,0.5-2.5,1-3.5c-1.5,2.5-3.5,3.5-6,5
				c0.5-1,0-2.5,0-4c-1.5,2.5-4.5,3.5-7,3.5c0.5-1,0.5-3,1-4c-1.5,1-4.5,1.5-6,2.5c0.5-1.5,0.5-3,1-4.5c-3,2.5-6.5,4-10,4.5
				c0.5-1,1-2,1-3c-1,1.5-3.5,2.5-5,4.5c0-1.5-0.5-3-0.5-4.5c-1.5,3-4.5,4.5-7.5,4.5c1-2,0.5-4.5,1.5-6c-1.5,1.5-3.5,2.5-4.5,4
				c0-0.5-0.5-2-0.5-3c-1,1.5-3,2.5-4,4c1-1.5,1-3,1.5-4c-1.5,1.5-3.5,2.5-5,4c0-1.5-1-3.5-1-5c-1,1.5-3,3-4,4c0.5-1.5,0-3.5,0.5-5
				c-1.5,1.5-4,3-5,4.5c0-1.5-1.5-3-1.5-4.5c-1,3-3.5,5.5-6,7c1-2,1-4,1.5-5.5c-1.5,1.5-4,2.5-5.5,4c1-2,1-3.5,1.5-5.5
				c-3,3.5-7.5,7.5-12,8.5l2.5-1c1-2.5,1-4.5,0.5-7c-14,9.5-21,27-23,43.5c-2,14,3,28,13,37.5c16.5,15,40,16.5,61.5,12.5
				c3.644-0.656,6.971-1.53,10.022-2.606c7.219,2.742,15.64,2.532,24.812,2.939C101,510,115.667,511,129,507
				c10.667-3.333,163,6,184.5,2c2.484-0.447,4.819-0.997,7.025-1.641c6.515,1.733,13.882,1.622,21.809,1.974
				C356,510,370.667,511,384,507c10.667-3.333,120.333,13.166,126,6.5c7.666-9.334-4-79.5,1.334-87.5c2.333-3,2.333-6,4-9
				C513.334,418.333,511.667,419.667,510.334,421.333z"/>
		</g>
	</g>
</g>
</svg>
