<?xml version="1.0" encoding="UTF-8" standalone="no"?>
<!-- Generator: Adobe Illustrator 27.5.0, SVG Export Plug-In . SVG Version: 6.00 Build 0)  -->

<svg
preserveAspectRatio="none"
   version="1.1"
   x="0px"
   y="0px"
   viewBox="0 0 500 500"
   xml:space="preserve"
   id="svg16"
   sodipodi:docname="28462503_7447126.svg"
   inkscape:export-filename="..\Desktop\keeperedit1.svg"
   inkscape:export-xdpi="77.183998"
   inkscape:export-ydpi="77.183998"
   xmlns:inkscape="http://www.inkscape.org/namespaces/inkscape"
   xmlns:sodipodi="http://sodipodi.sourceforge.net/DTD/sodipodi-0.dtd"
   xmlns:xlink="http://www.w3.org/1999/xlink"
   xmlns="http://www.w3.org/2000/svg"
   xmlns:svg="http://www.w3.org/2000/svg"><defs
   id="defs16" /><sodipodi:namedview
   id="namedview16"
   pagecolor="#ffffff"
   bordercolor="#000000"
   borderopacity="0.25"
   inkscape:showpageshadow="2"
   inkscape:pageopacity="0.0"
   inkscape:pagecheckerboard="0"
   inkscape:deskcolor="#d1d1d1" />
<g
   id="BACKGROUND">
	<rect
   style="fill:#f4efd9"
   width="500"
   height="500"
   id="rect1"
   x="0"
   y="0" />
</g>
<g
   id="OBJECTS">
	<ellipse
   style="fill:#231f20;stroke-width:0.493973"
   cx="462.92325"
   cy="283.57303"
   id="circle1"
   rx="12.669786"
   ry="9.9678268" />
	<path
   style="fill:none;stroke:#231f20;stroke-miterlimit:10"
   d="M 189,488"
   id="path1" />
	<g
   id="g13"
   transform="matrix(0.5569137,0,0,0.43814622,220.73986,228.69521)">
		<path
   style="fill:#231f20"
   d="m 56.317,401.986 c -3.111,-4.527 2.769,-11.102 5.961,-13.828 -6.366,2.376 -12.965,7.71 -6.414,14.139 z"
   id="path2" />
		<path
   style="fill:#231f20"
   d="m 62.548,392.238 c 2.767,-0.436 4.957,-2.873 6.05,-5.357 3.92,3.57 -2.638,5.278 -5.071,5.616 z"
   id="path3" />
		<path
   style="fill:#231f20"
   d="m 70.592,370.581 c 1.088,-5.014 6.31,-6.337 10.18,-4.197 z"
   id="path4" />
		<path
   style="fill:#231f20"
   d="m 79.232,371.708 c 0.101,2.863 4.515,2.496 4.08,-0.271 z"
   id="path5" />
		<path
   style="fill:#231f20"
   d="m 58.986,377.357 c -0.22,-2.648 1.614,-4.442 3.979,-3.135 z"
   id="path6" />
		<path
   style="fill:#231f20"
   d="m 44.33,303.989 c -2.666,-4.307 1.678,-10.079 5.742,-12.049 z"
   id="path7" />
		<path
   style="fill:#231f20"
   d="m 56.537,290.544 c 3.401,1.439 5.485,-3.816 5.675,-6.611 z"
   id="path8" />
		<path
   style="fill:#231f20"
   d="m 54.583,278.944 c -0.748,-2.341 2.388,-4.632 1.724,-1.222 z"
   id="path9" />
		<path
   style="fill:#231f20"
   d="m 33.378,310.069 c -1.534,-1.573 -1.344,-4.367 0.915,-4.883 z"
   id="path10" />
		<path
   style="fill:#231f20"
   d="m 34.579,294.624 c -0.184,-3.965 4.125,-0.648 0.696,0.242 z"
   id="path11" />
		<path
   style="fill:#231f20"
   d="m 45.934,318.848 c 4.466,-3.13 1.425,4.136 -0.242,0.696 z"
   id="path12" />
		<path
   style="fill:#231f20"
   d="m 38.488,358.064 c -1.474,-0.737 -1.229,-2.457 0.737,-2.702 0.491,0.983 0.246,1.965 -0.491,2.702 z"
   id="path13" />
	</g>
	<path
   style="fill:#231f20;stroke-width:0.493973"
   d="m 457.21488,313.58604 c 0.9746,-0.87629 3.48071,-2.51934 3.75917,-3.72424 0.27846,-1.09537 -0.32691,-1.84066 -1.85842,-1.51205 0.69614,-1.97165 -1.76152,-1.77405 -3.01457,-1.00729 -1.39229,0.87629 -2.08843,2.51934 -3.34149,3.72424 0.41769,-1.2049 2.22766,-3.94332 1.11383,-4.92915 -2.08842,-1.86212 -4.17685,1.97166 -4.45531,3.17656 0.30575,1.23382 0.11083,2.55221 -0.50679,3.73564 0.56248,0.3676 0.91278,0.87191 1.09545,1.38805 0.10414,0.28742 0.15204,0.58492 0.15315,0.87936 -0.0111,0.29443 -0.0507,0.59018 -0.18489,0.86095 0.039,-0.57528 -0.1203,-1.12691 -0.37147,-1.63384 -0.2623,-0.49993 -0.64267,-0.97269 -1.17453,-1.25179 l -0.19269,-0.10121 0.0924,-0.16737 c 0.31967,-0.57704 0.55803,-1.18168 0.73512,-1.80166 0.0863,-0.31021 0.15984,-0.62436 0.21497,-0.94245 0.0696,-0.31766 0.0969,-0.63969 0.13868,-0.96568 -4.45531,-2.4098 -5.98683,5.47683 -5.15146,7.44849 -0.8337,0.56214 -4.41465,2.6464 -4.38792,3.78602 -0.9306,0.66642 -1.73534,1.39725 -3.40887,2.12895 -7.49996,3.27778 -10.72059,5.91498 -18.65661,7.66756 -3.18666,0.70367 -5.84759,1.20491 -9.04984,1.20491 -1.11383,0 -1.39229,0.3286 -2.36689,0 -0.55691,-0.10954 -1.11383,-0.8763 -1.67074,-1.09537 -0.46558,-0.0916 -0.9061,-0.1034 -1.33325,-0.0657 0.25896,0.8557 0.47727,1.72235 0.60648,2.59908 0.13533,0.89119 0.22722,1.79158 0.19046,2.69635 l -0.01,0.2423 -0.30463,-0.0574 c -0.36311,-0.0684 -0.71787,-0.18972 -1.02361,-0.36147 -0.30686,-0.17088 -0.5675,-0.38206 -0.79138,-0.6042 -0.36533,-0.36104 -0.6449,-0.7488 -0.93171,-1.1164 -0.0395,0.0421 -0.0835,0.0797 -0.12197,0.124 -0.11361,0.12662 -0.21552,0.26639 -0.3826,0.41141 -0.15593,0.15336 -0.4756,0.2607 -0.72621,0.25106 -0.25395,-10e-4 -0.46669,-0.0499 -0.67498,-0.0986 l 0.0189,0.004 c -0.54354,-0.11085 -0.915,-0.38513 -1.25973,-0.62479 -0.34418,-0.2423 -0.67554,-0.48722 -1.07485,-0.60727 -0.53798,-0.19191 -1.1361,-0.2905 -1.73534,-0.38119 -0.60147,-0.0881 -1.21686,-0.14284 -1.81721,-0.25676 0.61428,0.0416 1.22688,0.0552 1.8445,0.0942 0.61483,0.0355 1.23802,0.11041 1.83726,0.2883 0.49342,0.12531 0.86655,0.38031 1.22632,0.60069 0.35977,0.22127 0.71619,0.44472 1.08765,0.50563 l 0.0178,0.004 c 0.181,0.0386 0.36534,0.0705 0.51793,0.0662 0.15483,-0.008 0.24003,-0.0364 0.34585,-0.13101 0.20828,-0.1941 0.42604,-0.51832 0.71507,-0.76763 l 0.23614,-0.20374 0.19547,0.2274 c 0.39653,0.46093 0.70951,0.93939 1.10937,1.34511 0.32636,0.33606 0.73123,0.59895 1.20294,0.75493 0.0395,-0.79042 0.0384,-1.58609 -0.0228,-2.38133 -0.0718,-0.87235 -0.16373,-1.74689 -0.28402,-2.62187 -0.592,0.053 -1.15782,0.2033 -1.72254,0.3939 l -0.7975,-1.01343 c 0.41045,-0.51351 0.95901,-0.94202 1.63288,-1.17774 0.83537,-0.32861 1.80996,0.10953 2.78456,-0.43815 0.55692,-0.43814 1.80997,-1.97166 2.22766,-2.51934 0.55691,-0.87629 0.55691,-1.53351 0.9746,-2.4098 0.41768,-0.76676 1.11382,-1.31444 1.39228,-2.19073 0.27846,-0.76676 -0.13923,-1.75259 0,-2.51935 0.27846,-1.09536 0.83537,-1.42397 1.25306,-2.4098 -0.41769,0.10954 -0.9746,-0.10954 -1.39229,0 0.83537,-1.53351 0.69615,-5.91497 -2.08842,-2.84795 -0.42381,-0.33343 -0.91,-0.55864 -1.4374,-0.69928 0.49009,-0.34044 0.97237,-0.68745 1.4374,-1.0533 2.78457,-2.19074 5.42991,-4.27193 8.63216,-5.91498 1.04143,-0.64407 3.31364,-1.56988 5.22719,-2.55965 -0.17932,-0.15204 -0.34361,-0.31503 -0.49509,-0.48327 -0.28793,-0.31591 -0.52573,-0.65591 -0.74014,-1.00336 -0.20439,-0.35139 -0.38427,-0.71155 -0.51459,-1.08529 -0.13199,-0.37198 -0.22778,-0.75668 -0.22834,-1.14838 0.44331,0.69446 0.83537,1.36921 1.24638,2.04746 0.40654,0.68044 0.80752,1.34686 1.24526,2.04132 1.16729,0.90916 4.72095,-2.29106 5.59308,-2.96756 2.37635,0.80137 12.11399,0.29312 10.00718,-3.19321 -0.28904,-0.2125 -0.64713,-0.29312 -1.00857,-0.29619 -0.36533,-0.006 -0.7329,0.0421 -1.10659,0.10253 -0.1938,0.0311 -0.3826,0.05 -0.52461,0.0964 -0.16039,0.0486 -0.33081,0.10866 -0.50345,0.17526 -0.34918,0.12837 -0.70561,0.28874 -1.23857,0.30451 -0.56304,-0.0605 -1.00134,-0.29093 -1.40287,-0.49291 -0.40154,-0.20988 -0.78748,-0.41186 -1.26197,-0.51965 0.49733,-0.0394 0.99799,0.10866 1.44074,0.25895 0.43773,0.15204 0.85542,0.31021 1.25974,0.33299 0.27845,-0.0105 0.62374,-0.15467 0.97237,-0.2734 0.17933,-0.0618 0.36311,-0.13013 0.57139,-0.17789 0.098,-0.0219 0.23391,-0.0442 0.32635,-0.0499 l 0.29183,-0.0254 c 0.39318,-0.028 0.80752,-0.0425 1.21463,0.0289 0.16206,0.0285 0.31688,0.0679 0.46279,0.13188 0.13143,0.0574 0.21942,0.1516 0.37703,0.16825 0.0735,0.007 0.15427,-0.008 0.22778,-0.0171 0.15761,-0.0197 0.31354,-0.0443 0.46892,-0.0723 0.38371,-0.0688 0.76186,-0.15641 1.13332,-0.25763 0.41212,-0.1126 0.81699,-0.24273 1.20739,-0.39608 0.37146,-0.1459 0.73401,-0.31328 1.05813,-0.51877 0.27234,-0.17263 0.52852,-0.37724 0.68501,-0.62611 0.1409,-0.22477 0.17821,-0.47714 0.0874,-0.71856 -0.0885,-0.23484 -0.27678,-0.4399 -0.49008,-0.61472 -1.15615,-0.95472 -4.77498,0.2366 -6.33656,0.46444 1.63008,-0.88287 3.76919,-1.29209 4.99495,-2.31078 1.07541,-0.9188 1.80329,-2.51978 -0.75183,-2.13772 0.54355,-1.17335 -0.6243,-2.01942 -2.03496,-1.89191 -1.54878,0.11873 -3.83825,1.94668 -5.02949,2.63807 0.76353,-0.60946 2.90208,-2.33794 1.89574,-3.39344 -1.64179,-1.64655 -3.3181,0.99196 -4.09276,1.71052 -1.86121,1.74646 -6.63674,3.30231 -5.97736,6.31325 -1.90631,0.67694 -5.78355,1.75171 -6.34325,3.39914 -5.03784,2.14297 -7.95495,3.61208 -14.72368,6.36057 -4.01479,1.63034 -7.23988,4.38146 -10.58136,6.57219 -1.67074,0.98583 -3.75917,2.0812 -5.42991,2.95749 -1.53151,0.76676 -2.64534,1.64305 -4.17685,2.4098 -1.96368,0.9131 -4.03985,2.86198 -5.64599,4.80691 -1.86344,0.52577 -2.80629,1.51423 -4.37846,2.75112 -3.20225,2.62887 -7.79679,3.94331 -11.13827,6.46265 -1.39229,1.09537 -2.08843,1.86213 -3.8984,2.30027 -2.08842,0.54768 -3.20225,0.21907 -4.59454,1.64305 -1.67074,1.97166 -6.50753,2.86504 -7.93602,2.84795 0.10359,0.19322 0.21163,0.38294 0.32023,0.57222 -1.732,0.25631 -3.30473,0.38688 -5.19322,0.30407 -4.03762,-0.10953 -7.93602,0 -11.83442,-0.10953 -3.48071,-0.10954 -12.2521,-0.32861 -12.2521,-0.32861 0,0.50737 -0.0117,1.0143 -0.0212,1.52212 -5.54686,0.62567 -10.66323,-2.25076 -15.99011,-2.72703 -6.54373,-0.65721 -13.36593,0.54769 -19.77043,0.98583 -1.68244,0.078 -3.36488,0.10122 -5.04731,0.14678 -0.61372,-0.62129 -2.38861,-1.10632 -3.44563,-1.02307 -0.9746,0 -1.53151,0.65722 -2.22765,0.76676 -0.9746,0.21907 -1.9492,0 -2.9238,0 -1.9492,0 -3.8984,0.10953 -5.84759,0.32861 -3.61994,0.43814 -7.65757,1.64304 -9.04985,4.60053 -1.53151,3.2861 2.08842,5.03868 5.98682,3.94332 3.20225,-0.87629 5.56914,-2.40981 9.04985,-2.95749 1.39228,-0.21907 3.34148,0 4.73376,-0.32861 0.85654,-0.24536 1.18902,-0.52797 1.43907,-0.97575 -0.13422,0.0223 -0.26732,0.0464 -0.40376,0.0644 -0.22444,0.0337 -0.45166,0.057 -0.68556,0.0727 -0.23614,0.014 -0.46948,0.0245 -0.77801,-0.0403 l -0.33571,-0.13949 c -0.10581,-0.0574 -0.20049,-0.13364 -0.29906,-0.20199 -0.0796,-0.0837 -0.16207,-0.17043 -0.225,-0.26288 -0.0434,-0.0981 -0.11249,-0.19542 -0.12697,-0.29707 -0.0897,-0.41054 0.0323,-0.79655 0.22165,-1.13173 0.18768,-0.33869 0.44998,-0.64013 0.75072,-0.90828 0.30185,-0.26639 0.65103,-0.50386 1.04644,-0.67124 -0.58532,0.52447 -1.0509,1.10939 -1.3327,1.72411 -0.12976,0.30539 -0.21608,0.62392 -0.14089,0.89995 0.0512,0.27822 0.2985,0.48065 0.63822,0.62261 0.14925,0.0399 0.36589,0.053 0.57306,0.0627 0.2172,0.008 0.43941,0.005 0.66384,0.007 0.41546,0 0.84206,-0.004 1.26475,0.0372 4.52827,-0.2756 8.84435,-0.37287 13.32416,1.13786 3.34149,0.98583 6.40451,1.53351 10.02445,1.42398 1.80997,0 2.9238,-0.10954 4.59454,0.43814 1.67074,0.54769 2.9238,1.2049 4.873,1.42398 2.80573,0.25982 7.76226,0.44253 11.33542,0.54812 0.004,0.007 0.008,0.0131 0.0122,0.0197 -0.20829,-0.52709 -0.41323,-1.0555 -0.60481,-1.58872 -0.33303,-0.87936 -0.49398,-1.80297 -0.56582,-2.71169 -0.0718,-0.9131 -0.0273,-1.82488 0.0802,-2.73009 0.10749,0.90565 0.20773,1.80692 0.35086,2.69811 0.15983,0.89118 0.33526,1.77011 0.67108,2.62581 0.30352,0.87059 0.62708,1.73987 0.8905,2.62624 0.13199,0.44691 0.25674,0.90215 0.33694,1.36176 0.059,0.17877 0.12085,0.3549 0.16373,0.54637 0.13923,1.2049 0.13923,2.40981 0.13923,3.61471 3.25237,-0.0811 14.47975,0.54768 17.82124,2.08119 -1.67074,1.86212 -10.99905,5.47683 -11.13828,6.79127 0,1.09536 0.9746,2.30027 1.53151,3.2861 0.39486,0.74528 0.78581,1.46691 1.17899,2.17758 -0.46781,0.6708 -0.98685,1.30831 -1.59667,1.87527 -2.9238,2.62887 -6.82219,1.97166 -10.72059,2.51934 -3.06302,0.43814 -5.70836,1.42397 -8.3537,2.73841 -3.20226,1.64305 -5.70837,2.19073 -9.60677,2.19073 -0.52294,0 -1.72197,-0.12005 -2.91878,-0.2033 -1.48863,-1.14794 -4.19301,-1.99137 -5.99184,-1.54928 -1.53151,0.43814 -1.80997,1.42397 -2.08842,2.73841 -0.41769,1.75259 -0.13923,1.97166 -1.9492,3.06703 -2.50611,1.75258 -6.54374,2.19073 -8.77139,4.05285 -1.67074,1.42397 -2.08843,5.03868 -1.53151,6.79126 1.99263,1.78238 7.79679,-4.27192 11.2775,-5.47682 2.63754,-0.889 4.82733,-1.53045 6.57269,-2.86811 0.41546,-0.1218 0.85654,-0.22915 1.16117,-0.42938 0.30018,-0.19322 0.40543,-0.50387 0.51849,-0.83511 0.059,-0.16386 0.10302,-0.32204 0.14034,-0.49291 0.0412,-0.16825 0.0941,-0.34351 0.10024,-0.47802 0.003,-0.0684 -0.008,-0.10691 -0.0267,-0.12619 -0.0178,-0.0228 -0.0813,-0.0605 -0.15872,-0.0955 -0.15928,-0.0701 -0.35865,-0.13758 -0.55468,-0.20374 -0.2779,-0.0758 -0.71118,0.0359 -1.21853,-0.009 -0.26175,-0.0149 -0.57529,-0.16825 -0.69169,-0.36585 -0.14758,-0.21601 -0.10191,-0.45217 -0.0245,-0.62787 0.16986,-0.36015 0.46781,-0.62611 0.77745,-0.87016 0.32246,-0.23177 0.65716,-0.46312 1.06148,-0.59368 -0.3425,0.20417 -0.62486,0.45742 -0.87714,0.72206 -0.24671,0.26377 -0.47783,0.54944 -0.57306,0.83511 -0.044,0.14196 -0.0362,0.27253 0.0384,0.35314 0.0897,0.10384 0.18044,0.14372 0.34807,0.15598 0.34361,0.0298 0.77188,-0.12224 1.35441,-4.3e-4 0.20662,0.0679 0.41379,0.12881 0.63767,0.22652 0.11027,0.0548 0.2378,0.11523 0.34306,0.23966 0.10525,0.12926 0.11472,0.27341 0.10748,0.37681 -0.0189,0.21338 -0.0768,0.37812 -0.12586,0.55031 -0.0479,0.17088 -0.11417,0.35008 -0.19325,0.51745 -0.0735,0.16869 -0.15983,0.33825 -0.2818,0.50562 -0.11862,0.16781 -0.3024,0.32598 -0.52071,0.42194 -0.1732,0.0736 -0.34919,0.11654 -0.52573,0.14809 5.08629,-0.46575 10.24666,-1.15364 15.30511,-1.438 3.06302,-0.21907 6.12605,0 9.04984,-0.65721 3.20226,-0.65722 5.42991,-2.40981 8.91062,-2.73842 2.9238,-0.21907 4.59454,0 6.8222,-1.64305 0.37034,-0.25281 0.7251,-0.53059 1.07428,-0.8167 0.63043,-0.27472 1.23245,-0.60508 1.81833,-0.96611 0.18266,-0.59238 0.02,-1.1922 -0.24226,-1.74295 -0.25117,-0.55864 -0.60425,-1.08879 -0.98407,-1.60581 -0.38594,-0.51526 -0.77968,-1.02832 -1.18678,-1.54139 -0.19826,-0.25895 -0.39597,-0.52052 -0.58253,-0.79086 -0.18156,-0.26551 -0.36757,-0.5192 -0.56416,-0.77376 -0.77912,-1.02527 -1.74982,-1.92697 -2.7027,-2.89878 -0.90944,-1.00335 -1.47638,-2.13158 -2.57071,-2.99385 0.6243,0.3584 1.11661,0.84387 1.57662,1.32933 0.44887,0.49423 0.85653,1.00511 1.33047,1.46385 0.99799,0.88681 2.02995,1.82619 2.83914,2.87073 0.20439,0.25939 0.39318,0.53235 0.57251,0.79918 0.17487,0.26158 0.36645,0.52008 0.55858,0.78034 0.37536,0.52446 0.77356,1.04498 1.11216,1.59354 0.34083,0.54637 0.6566,1.10895 0.86656,1.70176 0.18267,0.58799 0.28792,1.24171 -0.0223,1.80779 1.83893,-1.13305 3.508,-2.58375 5.32131,-3.69357 2.78457,-1.75259 5.70837,-3.61471 8.21448,-5.6959 2.77454,-2.06148 4.15346,-2.62231 6.26528,-4.38147 0.0997,-0.0784 0.20828,-0.1494 0.31911,-0.21775 0.1977,-0.12225 0.40376,-0.23573 0.61149,-0.34702 0.25228,-0.13538 0.50791,-0.26683 0.76409,-0.39739 0.28569,-0.14547 0.5725,-0.29006 0.8582,-0.43552 0.29906,-0.15204 0.59701,-0.30539 0.89273,-0.46181 0.29294,-0.15466 0.58309,-0.31283 0.86823,-0.47626 0.26732,-0.15335 0.53074,-0.31153 0.78414,-0.47846 0.22388,-0.14765 0.44107,-0.30188 0.64156,-0.46925 0.16429,-0.13758 0.31911,-0.28436 0.43941,-0.44823 0.0496,-0.0675 0.0936,-0.13845 0.1253,-0.2125 0.0145,-0.0337 0.0267,-0.0679 0.0356,-0.10252 0.0184,-0.071 -0.006,-0.12049 -0.0423,-0.18578 -0.0256,-0.046 -0.0529,-0.092 -0.0813,-0.13714 -0.0568,-0.0907 -0.11862,-0.18008 -0.18323,-0.26771 -0.12641,-0.17131 -0.2623,-0.33956 -0.40599,-0.50255 -0.27845,-0.31678 -0.56471,-0.63005 -0.86265,-0.93895 -0.58699,-0.62523 -1.20015,-1.23557 -1.7476,-1.91732 0.8621,0.44033 1.57384,1.01956 2.19368,1.65487 0.30018,0.32379 0.58086,0.66336 0.79583,1.03359 0.11695,0.20023 0.21831,0.41405 0.28292,0.63312 0.3787,-0.1551 0.98072,-0.30013 1.60112,-0.46093 -0.53742,-0.51219 -1.03641,-1.04629 -1.54265,-1.569 -1.08041,-1.17774 -2.36243,-2.19862 -3.67452,-3.2322 -1.2976,-1.03534 -2.63253,-2.05841 -3.81931,-3.19278 -0.59033,-0.56827 -1.15281,-1.15539 -1.66517,-1.76835 -0.49009,-0.6248 -0.94564,-1.26493 -1.31877,-1.93398 0.94731,1.2566 2.05946,2.41594 3.30472,3.48326 1.24693,1.06601 2.57907,2.07156 3.89339,3.10383 0.6527,0.51964 1.29928,1.0441 1.92469,1.59091 0.62653,0.549 1.19291,1.14356 1.70805,1.75127 1.02862,1.20709 2.01993,2.41988 3.37156,3.41885 0.29572,0.17307 0.55469,0.28918 0.74292,0.30802 0.83537,0.10954 4.50098,-6.24358 11.18394,-7.22941 3.07528,-0.45348 6.12605,-1.42398 9.04985,-2.51934 3.06303,-0.98583 5.56914,-2.73842 8.49294,-3.94332 3.06302,-1.42397 6.4045,-2.62888 9.74598,-3.83378 6.68297,-2.51934 11.83442,-2.30027 18.79584,-4.27192 6.11993,-1.7688 13.80589,-8.29499 18.74126,-12.70449 -0.41991,-0.17438 -0.79583,-0.39871 -1.14501,-0.63707 -0.82145,-0.58054 -1.47582,-1.25222 -2.09511,-1.95676 0.4717,0.22477 0.88326,0.50825 1.28424,0.78823 0.40265,0.27953 0.78414,0.5709 1.18066,0.84168 0.38984,0.27603 0.79082,0.53716 1.21741,0.75799 0.39597,0.19673 0.82034,0.35621 1.31766,0.37943 2.0706,-0.4009 3.70515,-3.25761 4.69924,-4.66582 3.75916,0.76676 6.12605,-2.84795 8.49293,-4.16238 0.9746,-0.54769 4.45531,-1.64305 2.50611,-3.06703 -1.25138,-0.8776 -3.61827,0.65591 -4.45364,1.20359 z m -23.26061,-21.62427 c 0.58253,-0.3251 1.16952,-0.64889 1.77433,-0.96129 0.61037,-0.30451 1.23802,-0.59982 1.91467,-0.82678 0.66941,-0.23003 1.40398,-0.3939 2.1352,-0.37725 -0.70171,0.15292 -1.32712,0.41055 -1.94196,0.6822 -0.61037,0.2791 -1.20738,0.58098 -1.80551,0.88987 -0.60314,0.30232 -1.20739,0.61297 -1.84784,0.88418 -0.63488,0.27428 -1.31432,0.51438 -2.02884,0.63137 0.636,-0.27691 1.21129,-0.6042 1.79995,-0.9223 z m 19.82668,20.56527 c 0.7329,-0.81889 1.58888,-1.54403 2.47326,-2.2455 0.89663,-0.69139 1.82111,-1.36088 2.86142,-1.93179 -0.73791,0.82153 -1.59166,1.54447 -2.47325,2.2455 -0.89385,0.6914 -1.8161,1.3587 -2.86143,1.93179 z"
   id="path14" />
	<g
   id="g16">
		<defs
   id="defs14"><rect
     id="SVGID_1_"
     width="500"
     height="500"
     x="0"
     y="0" /></defs>
		<clipPath
   id="SVGID_00000150076274393787873180000005842636458881573023_">
			<use
   xlink:href="#SVGID_1_"
   style="overflow:visible"
   id="use14" />
		</clipPath>
		<g
   clip-path="url(#SVGID_00000150076274393787873180000005842636458881573023_)"
   id="g15">
			<path
   style="fill:#231f20"
   d="m 510.334,421.333 c 1,-1.666 1.333,-3.333 1,-5.333 -1,2 -2.667,4.333 -5,5 0.666,-0.667 0.666,-1.333 1.666,-2.333 -2,0.666 -4,1.666 -6,2.333 0.667,-1.667 1,-3 2.334,-4.333 -3,0.666 -5,2.666 -7.334,2.666 0.334,-1 0,-2 0.667,-3 -2,2 -4.333,3.334 -6.667,5 0.334,-0.666 0.667,-1.666 1,-2.333 -1.666,-0.333 -3,0.333 -4.333,2 0.667,-1.667 0.667,-3 0.333,-4.667 -1,2 -2,4.334 -3.666,5.667 0,-1 -0.334,-3 0,-4.333 -2.334,1 -4.334,3.333 -7,3 1,-0.667 2.333,-2.667 3,-3.667 -2.667,-0.333 -4.334,2 -5.667,4 0.333,-1.333 -0.333,-3 0,-4.333 -0.667,1.333 -2,2.666 -2.333,4 C 472,420 471,418.333 471,417.333 c -1.333,1.667 -3,3.667 -5,4 0.667,-0.666 1,-2.666 1.667,-3.666 -2,0.333 -3.667,1.333 -5,2.666 0.333,-1.333 -0.333,-3 -0.333,-4.333 -0.667,1.333 -2,3.333 -3,4.333 0,-0.666 -0.667,-2 -0.667,-3 -0.333,0.667 -2,2.334 -2.333,3.667 -0.667,-1.667 -1,-3 0,-4.667 -3,1 -5,3.667 -7.667,5 0.333,-1.666 0.667,-3 1.667,-4.666 -1.667,1.333 -3.667,2.666 -5.334,4 1,-1.667 1,-3 0.667,-4.667 -1,1.667 -2,3.667 -3.333,5.333 0.333,-1.666 0.333,-3.666 0.333,-5.333 -1.333,2.333 -3.333,3.667 -5.667,4.667 0.667,-1 0.667,-2.334 1.334,-3.334 C 436,418 434,419.667 432.667,421.667 433,421 433.334,420 433.667,419 c -2.333,0 -5,1 -6.333,3 0.333,-1.667 -0.334,-3.333 -0.334,-4.667 -1,1.667 -2.333,3 -3.666,4 C 423.334,420 423,419 423,418 c -1,1.333 -2.666,2.667 -4,3.333 0.334,-1.333 0,-2.333 0.334,-3 -1.667,0.334 -3.334,1.667 -4.667,3 0,-1.333 -0.667,-3 -1,-4.333 -1.333,1.667 -3,3 -5,4.333 1,-1 1.333,-2.666 1.667,-3.666 -2.334,0 -4,2 -5.334,3.666 0,-1.666 -0.666,-3.333 -1,-4.666 -1,2.333 -3.333,4.333 -6,4.333 0.667,-0.667 1,-2.333 1.334,-3.333 -1.667,1 -3.334,1.666 -5,2.666 0.333,-1.333 -0.667,-3 -0.334,-4.333 -1.333,2.333 -3.333,4.333 -5.666,5.333 C 389,420 388.667,418 389,417 c -1.666,0.667 -2.666,0.667 -3.666,2.667 0,-1.334 -0.334,-2.667 -0.334,-4 -0.666,2.333 -2.666,5 -5,6 0.334,-1 0.334,-2.667 0.334,-4 -0.667,1 -2.334,1.666 -3,3 -0.334,-1 -1,-2.667 -1.334,-3.667 -1,1.333 -2.333,3 -3.666,4 0.333,-1 0.333,-2.667 0.333,-4 -1,1 -2.333,2 -3,3.667 0,-1.334 -1,-2.667 -1.333,-3.667 -0.667,1.667 -2,3.333 -3.667,4.333 0.247,-0.989 0.128,-1.98 0.186,-2.97 0.047,-0.288 0.103,-0.575 0.147,-0.863 -0.013,0.013 -0.025,0.022 -0.039,0.034 0.014,-0.067 0.023,-0.134 0.039,-0.201 -0.266,0.304 -0.537,0.591 -0.812,0.87 -1.738,1.31 -3.526,1.432 -5.688,2.297 1,-1 1.5,-2.5 2,-3.5 -2.5,1.5 -5,3 -8,4 0.5,-1.5 1,-3.5 1.5,-4.5 -2,2 -4,3 -5.5,4 0.5,-1 0.5,-2.5 1,-3.5 -3,2 -6,4 -10,4 0.5,-1 0.5,-2.5 1,-3.5 -1.5,2.5 -3.5,3.5 -6,5 0.5,-1 0,-2.5 0,-4 -1.5,2.5 -4.5,3.5 -7,3.5 0.5,-1 0.5,-3 1,-4 -1.5,1 -4.5,1.5 -6,2.5 0.5,-1.5 0.5,-3 1,-4.5 -3,2.5 -6.5,4 -10,4.5 0.5,-1 1,-2 1,-3 -1,1.5 -3.5,2.5 -5,4.5 0,-1.5 -0.5,-3 -0.5,-4.5 -1.5,3 -4.5,4.5 -7.5,4.5 1,-2 0.5,-4.5 1.5,-6 -1.5,1.5 -3.5,2.5 -4.5,4 0,-0.5 -0.5,-2 -0.5,-3 -1,1.5 -3,2.5 -4,4 1,-1.5 1,-3 1.5,-4 -1.5,1.5 -3.5,2.5 -5,4 0,-1.5 -1,-3.5 -1,-5 -1,1.5 -3,3 -4,4 0.5,-1.5 0,-3.5 0.5,-5 -1.5,1.5 -4,3 -5,4.5 0,-1.5 -1.5,-3 -1.5,-4.5 -1,3 -3.5,5.5 -6,7 1,-2 1,-4 1.5,-5.5 -1.5,1.5 -4,2.5 -5.5,4 1,-2 1,-3.5 1.5,-5.5 -3,3.5 -7.5,7.5 -12,8.5 l 2.5,-1 c 1,-2.5 1,-4.5 0.5,-7 -2.347,1.592 -4.479,3.426 -6.441,5.425 0.818,-1.532 1.081,-3.088 0.775,-4.925 -1,2 -2.667,4.333 -5,5 0.666,-0.667 0.666,-1.333 1.666,-2.333 -2,0.666 -4,1.666 -6,2.333 0.667,-1.667 1,-3 2.333,-4.333 -3,0.666 -5,2.666 -7.333,2.666 0.333,-1 0,-2 0.667,-3 -2,2 -4.334,3.334 -6.667,5 0.333,-0.666 0.667,-1.666 1,-2.333 -1.667,-0.333 -3,0.333 -4.333,2 0.666,-1.667 0.666,-3 0.333,-4.667 -1,2 -2,4.334 -3.667,5.667 0,-1 -0.333,-3 0,-4.333 -2.333,1 -4.333,3.333 -7,3 1,-0.667 2.334,-2.667 3,-3.667 -2.666,-0.333 -4.333,2 -5.666,4 0.333,-1.333 -0.334,-3 0,-4.333 -0.667,1.333 -2,2.666 -2.334,4 C 217,420 216,418.333 216,417.333 c -1.333,1.667 -3,3.667 -5,4 0.667,-0.666 1,-2.666 1.667,-3.666 -2,0.333 -3.667,1.333 -5,2.666 0.333,-1.333 -0.334,-3 -0.334,-4.333 -0.666,1.333 -2,3.333 -3,4.333 0,-0.666 -0.666,-2 -0.666,-3 -0.334,0.667 -2,2.334 -2.334,3.667 -0.666,-1.667 -1,-3 0,-4.667 -3,1 -5,3.667 -7.666,5 0.333,-1.666 0.666,-3 1.666,-4.666 -1.666,1.333 -3.666,2.666 -5.333,4 1,-1.667 1,-3 0.667,-4.667 -1,1.667 -2,3.667 -3.334,5.333 0.334,-1.666 0.334,-3.666 0.334,-5.333 -1.334,2.333 -3.334,3.667 -5.667,4.667 0.667,-1 0.667,-2.334 1.333,-3.334 C 181,418 179,419.667 177.667,421.667 178,421 178.333,420 178.667,419 c -2.334,0 -5,1 -6.334,3 0.334,-1.667 -0.333,-3.333 -0.333,-4.667 -1,1.667 -2.333,3 -3.667,4 C 168.333,420 168,419 168,418 c -1,1.333 -2.667,2.667 -4,3.333 0.333,-1.333 0,-2.333 0.333,-3 -1.666,0.334 -3.333,1.667 -4.666,3 0,-1.333 -0.667,-3 -1,-4.333 -1.334,1.667 -3,3 -5,4.333 1,-1 1.333,-2.666 1.666,-3.666 -2.333,0 -4,2 -5.333,3.666 0,-1.666 -0.667,-3.333 -1,-4.666 -1,2.333 -3.333,4.333 -6,4.333 0.667,-0.667 1,-2.333 1.333,-3.333 -1.666,1 -3.333,1.666 -5,2.666 0.334,-1.333 -0.666,-3 -0.333,-4.333 -1.333,2.333 -3.333,4.333 -5.667,5.333 C 134,420 133.667,418 134,417 c -1.667,0.667 -2.667,0.667 -3.667,2.667 0,-1.334 -0.333,-2.667 -0.333,-4 -0.667,2.333 -2.667,5 -5,6 0.333,-1 0.333,-2.667 0.333,-4 -0.666,1 -2.333,1.666 -3,3 -0.333,-1 -1,-2.667 -1.333,-3.667 -1,1.333 -2.333,3 -3.667,4 0.334,-1 0.334,-2.667 0.334,-4 -1,1 -2.334,2 -3,3.667 0,-1.334 -1,-2.667 -1.334,-3.667 -0.666,1.667 -2,3.333 -3.666,4.333 0.333,-1.333 0,-2.666 0.333,-4 -2.047,2.341 -4.352,3.91 -6.913,5.161 0.345,-1.661 0.66,-3.324 0.913,-4.994 -2,2 -4,2 -6.5,3 1,-1 1.5,-2.5 2,-3.5 -2.5,1.5 -5,3 -8,4 0.5,-1.5 1,-3.5 1.5,-4.5 -2,2 -4,3 -5.5,4 0.5,-1 0.5,-2.5 1,-3.5 -3,2 -6,4 -10,4 0.5,-1 0.5,-2.5 1,-3.5 -1.5,2.5 -3.5,3.5 -6,5 0.5,-1 0,-2.5 0,-4 -1.5,2.5 -4.5,3.5 -7,3.5 0.5,-1 0.5,-3 1,-4 -1.5,1 -4.5,1.5 -6,2.5 0.5,-1.5 0.5,-3 1,-4.5 -3,2.5 -6.5,4 -10,4.5 0.5,-1 1,-2 1,-3 -1,1.5 -3.5,2.5 -5,4.5 0,-1.5 -0.5,-3 -0.5,-4.5 -1.5,3 -4.5,4.5 -7.5,4.5 1,-2 0.5,-4.5 1.5,-6 -1.5,1.5 -3.5,2.5 -4.5,4 0,-0.5 -0.5,-2 -0.5,-3 -1,1.5 -3,2.5 -4,4 1,-1.5 1,-3 1.5,-4 -1.5,1.5 -3.5,2.5 -5,4 0,-1.5 -1,-3.5 -1,-5 -1,1.5 -3,3 -4,4 0.5,-1.5 0,-3.5 0.5,-5 -1.5,1.5 -4,3 -5,4.5 0,-1.5 -1.5,-3 -1.5,-4.5 -1,3 -3.5,5.5 -6,7 1,-2 1,-4 1.5,-5.5 -1.5,1.5 -4,2.5 -5.5,4 1,-2 1,-3.5 1.5,-5.5 -3,3.5 -7.5,7.5 -12,8.5 l 2.5,-1 c 1,-2.5 1,-4.5 0.5,-7 -14,9.5 -21,27 -23,43.5 -2,14 3,28 13,37.5 16.5,15 40,16.5 61.5,12.5 3.644,-0.656 6.971,-1.53 10.022,-2.606 7.219,2.742 15.64,2.532 24.812,2.939 C 101,510 115.667,511 129,507 c 10.667,-3.333 163,6 184.5,2 2.484,-0.447 4.819,-0.997 7.025,-1.641 6.515,1.733 13.882,1.622 21.809,1.974 C 356,510 370.667,511 384,507 c 10.667,-3.333 120.333,13.166 126,6.5 7.666,-9.334 -4,-79.5 1.334,-87.5 2.333,-3 2.333,-6 4,-9 -2,1.333 -3.667,2.667 -5,4.333 z"
   id="path15" />
		</g>
	</g>
</g>
</svg>
