<?xml version="1.0" encoding="UTF-8" standalone="no"?>
<!-- Generator: Adobe Illustrator 27.5.0, SVG Export Plug-In . SVG Version: 6.00 Build 0)  -->

<svg
preserveAspectRatio="none"

   version="1.1"
   x="0px"
   y="0px"
   viewBox="0 0 1440 500"
   xml:space="preserve"
   id="svg16"
   sodipodi:docname="28462503_7447126.svg"
   xmlns:inkscape="http://www.inkscape.org/namespaces/inkscape"
   xmlns:sodipodi="http://sodipodi.sourceforge.net/DTD/sodipodi-0.dtd"
   xmlns:xlink="http://www.w3.org/1999/xlink"
   xmlns="http://www.w3.org/2000/svg"
   xmlns:svg="http://www.w3.org/2000/svg"><defs
   id="defs16" /><sodipodi:namedview
   id="namedview16"
   pagecolor="#ffffff"
   bordercolor="#000000"
   borderopacity="0.25"
   inkscape:showpageshadow="2"
   inkscape:pageopacity="0.0"
   inkscape:pagecheckerboard="0"
   inkscape:deskcolor="#d1d1d1" />
<g
   id="BACKGROUND"
   transform="scale(2.8793411,1)">
	<rect
   style="fill:#f4efd9"
   width="500"
   height="500"
   id="rect1"
   x="0"
   y="0" />
</g>
<g
   id="OBJECTS"
   transform="scale(2.8793411,1)">
	<ellipse
   style="fill:#231f20;stroke-width:0.652584"
   cx="449.66592"
   cy="121.71818"
   id="circle1"
   rx="10.725793"
   ry="20.549734" />
	<path
   style="fill:none;stroke:#231f20;stroke-width:0.652584;stroke-miterlimit:10"
   d="M 333.74862,449.38482"
   id="path1" />
	<g
   id="g13"
   transform="matrix(0.47146344,0,0,0.90328503,244.64203,8.5817263)">
		<path
   style="fill:#231f20"
   d="m 56.317,401.986 c -3.111,-4.527 2.769,-11.102 5.961,-13.828 -6.366,2.376 -12.965,7.71 -6.414,14.139 z"
   id="path2" />
		<path
   style="fill:#231f20"
   d="m 62.548,392.238 c 2.767,-0.436 4.957,-2.873 6.05,-5.357 3.92,3.57 -2.638,5.278 -5.071,5.616 z"
   id="path3" />
		<path
   style="fill:#231f20"
   d="m 70.592,370.581 c 1.088,-5.014 6.31,-6.337 10.18,-4.197 z"
   id="path4" />
		<path
   style="fill:#231f20"
   d="m 79.232,371.708 c 0.101,2.863 4.515,2.496 4.08,-0.271 z"
   id="path5" />
		<path
   style="fill:#231f20"
   d="m 58.986,377.357 c -0.22,-2.648 1.614,-4.442 3.979,-3.135 z"
   id="path6" />
		<path
   style="fill:#231f20"
   d="m 44.33,303.989 c -2.666,-4.307 1.678,-10.079 5.742,-12.049 z"
   id="path7" />
		<path
   style="fill:#231f20"
   d="m 56.537,290.544 c 3.401,1.439 5.485,-3.816 5.675,-6.611 z"
   id="path8" />
		<path
   style="fill:#231f20"
   d="m 54.583,278.944 c -0.748,-2.341 2.388,-4.632 1.724,-1.222 z"
   id="path9" />
		<path
   style="fill:#231f20"
   d="m 33.378,310.069 c -1.534,-1.573 -1.344,-4.367 0.915,-4.883 z"
   id="path10" />
		<path
   style="fill:#231f20"
   d="m 34.579,294.624 c -0.184,-3.965 4.125,-0.648 0.696,0.242 z"
   id="path11" />
		<path
   style="fill:#231f20"
   d="m 45.934,318.848 c 4.466,-3.13 1.425,4.136 -0.242,0.696 z"
   id="path12" />
		<path
   style="fill:#231f20"
   d="m 38.488,358.064 c -1.474,-0.737 -1.229,-2.457 0.737,-2.702 0.491,0.983 0.246,1.965 -0.491,2.702 z"
   id="path13" />
	</g>
	<path
   style="fill:#231f20;stroke-width:0.652584"
   d="m 444.83342,183.5932 c 0.82506,-1.80657 2.94665,-5.19389 3.18238,-7.67792 0.23573,-2.25821 -0.27675,-3.7947 -1.57328,-3.11724 0.58933,-4.06478 -1.49123,-3.6574 -2.55203,-2.07665 -1.17866,1.80657 -1.76798,5.19389 -2.82878,7.67792 0.3536,-2.48403 1.88586,-8.12956 0.94293,-10.16195 -1.76799,-3.83897 -3.53598,4.06478 -3.77171,6.54881 0.25884,2.54365 0.0938,5.26164 -0.42903,7.70141 0.47618,0.75786 0.77273,1.79754 0.92737,2.86161 0.0882,0.59255 0.12871,1.20588 0.12965,1.81289 -0.009,0.60701 -0.0429,1.21672 -0.15652,1.77495 0.033,-1.18601 -0.10184,-2.32324 -0.31447,-3.36835 -0.22206,-1.03064 -0.54407,-2.00529 -0.99432,-2.58068 l -0.16312,-0.20866 0.0783,-0.34505 c 0.27062,-1.18963 0.47241,-2.43616 0.62233,-3.71431 0.0731,-0.63953 0.13531,-1.28718 0.18199,-1.94297 0.0589,-0.65488 0.082,-1.31879 0.11739,-1.99084 -3.77171,-4.96807 -5.06823,11.29106 -4.36104,15.35585 -0.70578,1.15891 -3.73729,5.45584 -3.71466,7.80528 -0.78781,1.3739 -1.46908,2.88058 -2.88582,4.38906 -6.3492,6.75748 -9.07568,12.19435 -15.79403,15.80749 -2.69771,1.45068 -4.95037,2.48404 -7.66128,2.48404 -0.94293,0 -1.17866,0.67746 -2.00372,0 -0.47146,-0.22582 -0.94293,-1.80657 -1.41439,-2.25822 -0.39414,-0.18878 -0.76707,-0.21317 -1.12868,-0.13549 0.21923,1.76412 0.40404,3.55081 0.51342,5.35829 0.11457,1.83728 0.19236,3.69353 0.16124,5.55881 l -0.008,0.49952 -0.25789,-0.11833 c -0.30739,-0.14091 -0.60771,-0.39112 -0.86655,-0.74521 -0.25977,-0.35228 -0.48042,-0.78766 -0.66995,-1.24563 -0.30928,-0.74431 -0.54595,-1.54371 -0.78875,-2.30157 -0.0335,0.0867 -0.0707,0.1644 -0.10325,0.25563 -0.0962,0.26105 -0.18246,0.5492 -0.3239,0.84818 -0.13201,0.31615 -0.40263,0.53746 -0.61479,0.51759 -0.21499,-0.003 -0.39508,-0.10298 -0.57141,-0.20324 l 0.016,0.008 c -0.46015,-0.22853 -0.77462,-0.79399 -1.06645,-1.28809 -0.29137,-0.49951 -0.57189,-1.00445 -0.90993,-1.25195 -0.45543,-0.39564 -0.96178,-0.59888 -1.46908,-0.78586 -0.50918,-0.18156 -1.03014,-0.29447 -1.53838,-0.52932 0.52002,0.0858 1.03863,0.11381 1.56148,0.1942 0.5205,0.0732 1.04807,0.22763 1.55536,0.59436 0.41772,0.25834 0.7336,0.78406 1.03816,1.23841 0.30457,0.45616 0.60631,0.91683 0.92077,1.04239 l 0.0151,0.008 c 0.15323,0.0795 0.30928,0.14543 0.43846,0.13639 0.13107,-0.0172 0.2032,-0.075 0.29278,-0.27008 0.17633,-0.40015 0.36067,-1.06858 0.60536,-1.58255 l 0.1999,-0.42003 0.16548,0.4688 c 0.33568,0.95026 0.60065,1.93665 0.93916,2.77309 0.27628,0.69282 0.61903,1.23479 1.01836,1.55636 0.0335,-1.62953 0.0325,-3.26989 -0.0193,-4.90935 -0.0608,-1.79844 -0.13861,-3.6014 -0.24045,-5.40526 -0.50116,0.1093 -0.98017,0.41912 -1.45823,0.81205 l -0.67514,-2.0893 c 0.34747,-1.05865 0.81186,-1.94206 1.38233,-2.42803 0.7072,-0.67746 1.53226,0.22582 2.35732,-0.90328 0.47146,-0.90329 1.53225,-4.06478 1.88585,-5.19389 0.47147,-1.80657 0.47147,-3.1615 0.82506,-4.96807 0.3536,-1.58075 0.94293,-2.70985 1.17866,-4.51642 0.23573,-1.58075 -0.11786,-3.61314 0,-5.19389 0.23573,-2.25822 0.7072,-2.93568 1.06079,-4.96807 -0.35359,0.22582 -0.82506,-0.22582 -1.17865,0 0.70719,-3.1615 0.58933,-12.19435 -1.76799,-5.87135 -0.35879,-0.6874 -0.77037,-1.15169 -1.21685,-1.44165 0.41489,-0.70185 0.82318,-1.41725 1.21685,-2.17149 2.35732,-4.51643 4.59677,-8.80703 7.30768,-12.19435 0.88164,-1.32783 2.80521,-3.23647 4.42516,-5.27699 -0.15181,-0.31344 -0.2909,-0.64946 -0.41913,-0.99633 -0.24375,-0.65126 -0.44507,-1.35221 -0.62658,-2.06852 -0.17303,-0.72443 -0.32531,-1.46693 -0.43563,-2.23744 -0.11174,-0.76688 -0.19283,-1.55997 -0.1933,-2.36751 0.37528,1.43171 0.70719,2.82277 1.05513,4.22106 0.34417,1.4028 0.68363,2.77669 1.0542,4.2084 0.98818,1.87432 3.99659,-4.72328 4.7349,-6.11795 2.01174,1.65211 10.25528,0.6043 8.47173,-6.58314 -0.24469,-0.43809 -0.54784,-0.6043 -0.85382,-0.61062 -0.30928,-0.0117 -0.62045,0.0867 -0.9368,0.21137 -0.16407,0.0641 -0.32389,0.10297 -0.44412,0.19872 -0.13578,0.10027 -0.28005,0.22402 -0.4262,0.36131 -0.29561,0.26467 -0.59734,0.59527 -1.04853,0.62779 -0.47665,-0.12466 -0.8477,-0.59978 -1.18762,-1.0162 -0.33993,-0.43267 -0.66665,-0.84909 -1.06834,-1.07129 0.42102,-0.0813 0.84487,0.22401 1.21968,0.53384 0.37057,0.31344 0.72417,0.63952 1.06645,0.68649 0.23573,-0.0217 0.52804,-0.31886 0.82317,-0.56365 0.15182,-0.12736 0.3074,-0.26827 0.48373,-0.36673 0.083,-0.0452 0.19801,-0.0912 0.27627,-0.10297 l 0.24705,-0.0524 c 0.33285,-0.0578 0.68362,-0.0876 1.02826,0.0596 0.1372,0.0587 0.26827,0.14001 0.39179,0.27189 0.11126,0.11833 0.18576,0.31254 0.31918,0.34686 0.0622,0.0154 0.13059,-0.0163 0.19283,-0.0352 0.13342,-0.0406 0.26543,-0.0912 0.39697,-0.14904 0.32484,-0.14181 0.64496,-0.32247 0.95943,-0.53113 0.34888,-0.23214 0.69163,-0.50042 1.02213,-0.81657 0.31447,-0.30079 0.62139,-0.64585 0.89578,-1.06949 0.23055,-0.35589 0.44742,-0.77773 0.5799,-1.29079 0.11928,-0.46339 0.15087,-0.98368 0.074,-1.48139 -0.075,-0.48416 -0.23432,-0.9069 -0.41489,-1.26731 -0.97875,-1.96826 -4.04232,0.48777 -5.36431,0.95748 1.37998,-1.82012 3.19087,-2.66378 4.22856,-4.76392 0.91039,-1.89419 1.5266,-5.19479 -0.63648,-4.40713 0.46015,-2.419 -0.52851,-4.16324 -1.72273,-3.90038 -1.31113,0.24479 -3.24932,4.01329 -4.25778,5.43867 0.64637,-1.25647 2.45679,-4.81992 1.60486,-6.99594 -1.38987,-3.39454 -2.80898,2.04504 -3.46478,3.52643 -1.57564,3.60049 -5.61843,6.80806 -5.06022,13.01543 -1.61382,1.39558 -4.89615,3.61133 -5.36997,7.00769 -4.26486,4.41796 -6.73438,7.44668 -12.46455,13.11298 -3.39878,3.36113 -6.12903,9.03285 -8.95781,13.54928 -1.41439,2.03239 -3.18237,4.2906 -4.59676,6.09717 -1.29653,1.58075 -2.23946,3.38732 -3.53598,4.96807 -1.66238,1.88245 -3.42,5.90026 -4.7797,9.90994 -1.57751,1.08394 -2.3757,3.12175 -3.70664,5.67173 -2.71092,5.41971 -6.60049,8.12956 -9.42927,13.32345 -1.17866,2.25822 -1.76799,3.83896 -3.30024,4.74225 -1.76799,1.12911 -2.71092,0.45164 -3.88958,3.38732 -1.41439,4.06478 -5.50905,5.90658 -6.71835,5.87135 0.0877,0.39835 0.17915,0.78947 0.27109,1.17969 -1.46625,0.52842 -2.79766,0.7976 -4.3964,0.62688 -3.41811,-0.22582 -6.71835,0 -10.0186,-0.22582 -2.94664,-0.22582 -10.37219,-0.67746 -10.37219,-0.67746 0,1.046 -0.01,2.0911 -0.0179,3.13801 -4.69577,1.28989 -9.02711,-4.64018 -13.53666,-5.62205 -5.53969,-1.35493 -11.31512,1.12911 -16.73695,2.03239 -1.42429,0.16079 -2.84858,0.20866 -4.27287,0.3026 -0.51955,-1.28085 -2.02211,-2.28079 -2.91695,-2.10917 -0.82506,0 -1.29652,1.35493 -1.88585,1.58075 -0.82506,0.45164 -1.65012,0 -2.47518,0 -1.65012,0 -3.30025,0.22582 -4.95037,0.67747 -3.06451,0.90328 -6.48262,3.38731 -7.66128,9.48449 -1.29652,6.77464 1.76799,10.38778 5.06823,8.12956 2.71092,-1.80657 4.71464,-4.96806 7.66128,-6.09717 1.17866,-0.45164 2.82878,0 4.00744,-0.67746 0.72511,-0.50584 1.00658,-1.08846 1.21826,-2.01162 -0.11362,0.0461 -0.2263,0.0957 -0.34181,0.13278 -0.19,0.0696 -0.38235,0.11743 -0.58037,0.14995 -0.1999,0.0289 -0.39744,0.0506 -0.65863,-0.0831 l -0.2843,-0.28725 c -0.0896,-0.11833 -0.16972,-0.2755 -0.25317,-0.41641 -0.0674,-0.17253 -0.1372,-0.35138 -0.19047,-0.54197 -0.0368,-0.20234 -0.0952,-0.40287 -0.1075,-0.61243 -0.0759,-0.84638 0.0274,-1.64217 0.18765,-2.33319 0.15888,-0.69824 0.38094,-1.3197 0.63553,-1.87251 0.25553,-0.54919 0.55114,-1.03877 0.88588,-1.38383 -0.49551,1.08123 -0.88965,2.28712 -1.12821,3.55443 -0.10985,0.62959 -0.18293,1.28628 -0.11928,1.85534 0.0434,0.57359 0.2527,0.99091 0.54029,1.28357 0.12636,0.0822 0.30976,0.1093 0.48514,0.12917 0.18387,0.0163 0.37198,0.01 0.56198,0.0145 0.35172,0 0.71286,-0.009 1.0707,0.0768 3.83347,-0.56816 7.48731,-0.76869 11.27976,2.34584 2.82878,2.03239 5.42183,3.16149 8.48634,2.93567 1.53226,0 2.47519,-0.22582 3.88958,0.90329 1.41439,1.1291 2.47518,2.48403 4.1253,2.93567 2.37523,0.53565 6.57126,0.91232 9.59617,1.13001 0.003,0.0136 0.007,0.0271 0.0104,0.0407 -0.17633,-1.08665 -0.34983,-2.17601 -0.51201,-3.27531 -0.28194,-1.81289 -0.41819,-3.71702 -0.47901,-5.59043 -0.0608,-1.88245 -0.0231,-3.76218 0.0679,-5.62837 0.091,1.86709 0.17586,3.72515 0.29702,5.56243 0.13531,1.83728 0.28382,3.64927 0.56812,5.41339 0.25694,1.79482 0.53086,3.58694 0.75386,5.41429 0.11174,0.92135 0.21735,1.85986 0.28524,2.80741 0.05,0.36854 0.1023,0.73166 0.13861,1.12639 0.11786,2.48404 0.11786,4.96807 0.11786,7.4521 2.75335,-0.1671 12.25805,1.12911 15.08683,4.29061 -1.41439,3.83896 -9.3114,11.29106 -9.42927,14.00092 0,2.25821 0.82506,4.74224 1.29653,6.77463 0.33427,1.53649 0.66523,3.0242 0.99809,4.48933 -0.39603,1.38293 -0.83544,2.69721 -1.35169,3.86606 -2.47518,5.41971 -5.77543,4.06478 -9.07567,5.19389 -2.59304,0.90328 -4.8325,2.93568 -7.07195,5.64553 -2.71091,3.38732 -4.8325,4.51643 -8.13274,4.51643 -0.44271,0 -1.45777,-0.2475 -2.47094,-0.41913 -1.26022,-2.36661 -3.54965,-4.10543 -5.07248,-3.19401 -1.29652,0.90328 -1.53225,2.93567 -1.76798,5.64553 -0.3536,3.61314 -0.11787,4.06478 -1.65013,6.32299 -2.12158,3.61314 -5.53969,4.51643 -7.42554,8.35539 -1.4144,2.93567 -1.76799,10.38778 -1.29653,14.00092 1.6869,3.67456 6.60049,-8.80703 9.54714,-11.29107 2.23285,-1.83276 4.08664,-3.15517 5.56421,-5.9129 0.35171,-0.25111 0.72511,-0.47242 0.983,-0.88522 0.25412,-0.39835 0.34322,-1.03878 0.43893,-1.72166 0.05,-0.33783 0.0872,-0.66392 0.11881,-1.0162 0.0349,-0.34686 0.0797,-0.70817 0.0849,-0.98548 0.002,-0.14091 -0.007,-0.2204 -0.0226,-0.26015 -0.0151,-0.047 -0.0688,-0.12465 -0.13437,-0.19691 -0.13484,-0.14453 -0.30362,-0.28363 -0.46958,-0.42003 -0.23526,-0.15627 -0.60205,0.0741 -1.03156,-0.019 -0.22159,-0.0307 -0.48702,-0.34686 -0.58555,-0.75424 -0.12494,-0.44532 -0.0863,-0.93219 -0.0207,-1.29441 0.14379,-0.7425 0.39603,-1.29079 0.65816,-1.79392 0.27298,-0.47784 0.55633,-0.95478 0.89861,-1.22395 -0.28995,0.42093 -0.52898,0.94302 -0.74256,1.48861 -0.20886,0.54378 -0.40451,1.13272 -0.48513,1.72166 -0.0373,0.29266 -0.0306,0.56184 0.0325,0.72805 0.0759,0.21408 0.15275,0.29628 0.29466,0.32157 0.29089,0.0614 0.65345,-0.25202 1.1466,-9.1e-4 0.17491,0.14001 0.3503,0.26557 0.53983,0.467 0.0933,0.11291 0.20131,0.23757 0.29042,0.4941 0.0891,0.26647 0.0971,0.56365 0.091,0.77682 -0.016,0.4399 -0.0651,0.77954 -0.10655,1.13453 -0.0405,0.35228 -0.0967,0.72173 -0.1636,1.06678 -0.0622,0.34776 -0.13531,0.69734 -0.23856,1.04239 -0.10042,0.34596 -0.25601,0.67204 -0.44082,0.86986 -0.14662,0.15176 -0.29561,0.24028 -0.44506,0.30531 4.30588,-0.96019 8.67446,-2.37834 12.95676,-2.96458 2.59305,-0.45164 5.1861,0 7.66127,-1.35492 2.71092,-1.35493 4.59677,-4.96807 7.54342,-5.64554 2.47518,-0.45164 3.88957,0 5.77543,-3.38731 0.31352,-0.5212 0.61384,-1.09388 0.90945,-1.68373 0.5337,-0.56636 1.04335,-1.24743 1.53933,-1.99174 0.15464,-1.22124 0.017,-2.45784 -0.20509,-3.59327 -0.21263,-1.15169 -0.51154,-2.24466 -0.83308,-3.31054 -0.32672,-1.06226 -0.66004,-2.12001 -1.00468,-3.17776 -0.16784,-0.53384 -0.33521,-1.0731 -0.49315,-1.63043 -0.1537,-0.54739 -0.31117,-1.07039 -0.4776,-1.5952 -0.65957,-2.11368 -1.48134,-3.97264 -2.28801,-5.97613 -0.7699,-2.06852 -1.24985,-4.39448 -2.17627,-6.17215 0.52851,0.73889 0.94528,1.73973 1.33471,2.74057 0.38,1.01891 0.72511,2.07214 1.12632,3.01788 0.84487,1.82824 1.71849,3.76489 2.40353,5.91832 0.17302,0.53474 0.33285,1.09749 0.48466,1.64759 0.14804,0.53926 0.31022,1.0722 0.47288,1.60875 0.31776,1.08123 0.65486,2.15434 0.94151,3.28525 0.28854,1.1264 0.55586,2.28621 0.7336,3.50836 0.15464,1.21221 0.24374,2.55991 -0.0189,3.72695 1.55677,-2.33589 2.96975,-5.32667 4.50483,-7.61469 2.35732,-3.61314 4.8325,-7.4521 6.95409,-11.74271 2.34883,-4.24995 3.51617,-5.40616 5.30396,-9.03285 0.0844,-0.16168 0.17633,-0.30802 0.27015,-0.44893 0.16737,-0.25202 0.34181,-0.48597 0.51767,-0.7154 0.21357,-0.27912 0.42997,-0.5501 0.64684,-0.81928 0.24187,-0.29989 0.48467,-0.59797 0.72653,-0.89787 0.25318,-0.31344 0.50541,-0.62959 0.75576,-0.95206 0.24799,-0.31886 0.49362,-0.64494 0.73501,-0.98187 0.2263,-0.31615 0.4493,-0.64223 0.66382,-0.98639 0.18953,-0.3044 0.3734,-0.62236 0.54312,-0.96741 0.13909,-0.28364 0.27015,-0.58624 0.37199,-0.92406 0.042,-0.13911 0.0792,-0.28544 0.10608,-0.4381 0.0123,-0.0695 0.0226,-0.14001 0.0302,-0.21137 0.0156,-0.14633 -0.005,-0.2484 -0.0358,-0.38299 -0.0217,-0.0948 -0.0448,-0.18969 -0.0688,-0.28273 -0.0481,-0.18698 -0.10043,-0.37125 -0.15512,-0.55191 -0.10702,-0.35318 -0.22205,-0.70004 -0.34369,-1.03606 -0.23573,-0.65308 -0.47807,-1.29893 -0.7303,-1.93574 -0.49692,-1.28899 -1.016,-2.54727 -1.47945,-3.95278 0.72982,0.9078 1.33235,2.10195 1.85709,3.41171 0.25412,0.66753 0.49174,1.36757 0.67372,2.13085 0.099,0.4128 0.18482,0.8536 0.23951,1.30525 0.32059,-0.31977 0.83025,-0.61875 1.35546,-0.95026 -0.45497,-1.05594 -0.8774,-2.15704 -1.30596,-3.23466 -0.91464,-2.42803 -1.99995,-4.53269 -3.11071,-6.66354 -1.09851,-2.13446 -2.22861,-4.24363 -3.2333,-6.58224 -0.49975,-1.17156 -0.97593,-2.38196 -1.40968,-3.64565 -0.41488,-1.28809 -0.80054,-2.60779 -1.11642,-3.9871 0.80196,2.59062 1.74347,4.98071 2.79766,7.18111 1.05561,2.19769 2.18335,4.27073 3.296,6.39887 0.55256,1.0713 1.09993,2.15253 1.62938,3.27983 0.5304,1.13182 1.00988,2.35757 1.44598,3.61043 0.87079,2.48855 1.71,4.98884 2.85424,7.04833 0.25035,0.3568 0.46958,0.59617 0.62893,0.63501 0.7072,0.22583 3.81037,-12.87181 9.46793,-14.9042 2.60342,-0.9349 5.1861,-2.93568 7.66128,-5.19389 2.59305,-2.03239 4.71464,-5.64553 7.18982,-8.12956 2.59305,-2.93568 5.42183,-5.41971 8.25061,-7.90375 5.65756,-5.19389 10.0186,-4.74224 15.91189,-8.80703 5.18091,-3.64656 11.68758,-17.10099 15.86569,-26.19165 -0.35549,-0.35951 -0.67372,-0.82199 -0.96933,-1.31338 -0.69541,-1.19685 -1.24938,-2.58158 -1.77365,-4.03407 0.39933,0.46339 0.74774,1.04781 1.0872,1.62501 0.34087,0.5763 0.66382,1.17698 0.9995,1.73521 0.33002,0.56907 0.66948,1.10743 1.03062,1.56269 0.33521,0.40557 0.69446,0.73437 1.11548,0.78224 1.7529,-0.8265 3.13665,-6.71592 3.97821,-9.61908 3.18238,1.58075 5.1861,-5.87135 7.18982,-8.58121 0.82506,-1.1291 3.7717,-3.38732 2.12158,-6.32299 -1.05938,-1.80928 -3.0631,1.35221 -3.77029,2.48132 z m -19.69161,-44.58073 c 0.49315,-0.67024 0.99007,-1.33776 1.50208,-1.98181 0.51672,-0.62778 1.04806,-1.23659 1.62089,-1.70449 0.5667,-0.47423 1.18856,-0.81206 1.80759,-0.77773 -0.59404,0.31524 -1.1235,0.84637 -1.64399,1.40641 -0.51673,0.57539 -1.02213,1.19776 -1.52849,1.83457 -0.51059,0.62327 -1.02213,1.2637 -1.56431,1.82283 -0.53747,0.56546 -1.11266,1.06046 -1.71754,1.30164 0.53841,-0.57088 1.02543,-1.24563 1.52377,-1.90142 z m 16.78457,42.39749 c 0.62044,-1.68824 1.34508,-3.18318 2.09377,-4.62934 0.75905,-1.42538 1.54168,-2.8056 2.42237,-3.98258 -0.62468,1.69366 -1.34744,3.18408 -2.09376,4.62934 -0.7567,1.42538 -1.53745,2.80108 -2.42238,3.98258 z"
   id="path14" />
	<g
   id="g16">
		<defs
   id="defs14"><rect
     id="SVGID_1_"
     width="500"
     height="500"
     x="0"
     y="0" /></defs>
		<clipPath
   id="SVGID_00000150076274393787873180000005842636458881573023_">
			<use
   xlink:href="#SVGID_1_"
   style="overflow:visible"
   id="use14" />
		</clipPath>
		<g
   clip-path="url(#SVGID_00000150076274393787873180000005842636458881573023_)"
   id="g15">
			<path
   style="fill:#231f20"
   d="m 510.334,421.333 c 1,-1.666 1.333,-3.333 1,-5.333 -1,2 -2.667,4.333 -5,5 0.666,-0.667 0.666,-1.333 1.666,-2.333 -2,0.666 -4,1.666 -6,2.333 0.667,-1.667 1,-3 2.334,-4.333 -3,0.666 -5,2.666 -7.334,2.666 0.334,-1 0,-2 0.667,-3 -2,2 -4.333,3.334 -6.667,5 0.334,-0.666 0.667,-1.666 1,-2.333 -1.666,-0.333 -3,0.333 -4.333,2 0.667,-1.667 0.667,-3 0.333,-4.667 -1,2 -2,4.334 -3.666,5.667 0,-1 -0.334,-3 0,-4.333 -2.334,1 -4.334,3.333 -7,3 1,-0.667 2.333,-2.667 3,-3.667 -2.667,-0.333 -4.334,2 -5.667,4 0.333,-1.333 -0.333,-3 0,-4.333 -0.667,1.333 -2,2.666 -2.333,4 C 472,420 471,418.333 471,417.333 c -1.333,1.667 -3,3.667 -5,4 0.667,-0.666 1,-2.666 1.667,-3.666 -2,0.333 -3.667,1.333 -5,2.666 0.333,-1.333 -0.333,-3 -0.333,-4.333 -0.667,1.333 -2,3.333 -3,4.333 0,-0.666 -0.667,-2 -0.667,-3 -0.333,0.667 -2,2.334 -2.333,3.667 -0.667,-1.667 -1,-3 0,-4.667 -3,1 -5,3.667 -7.667,5 0.333,-1.666 0.667,-3 1.667,-4.666 -1.667,1.333 -3.667,2.666 -5.334,4 1,-1.667 1,-3 0.667,-4.667 -1,1.667 -2,3.667 -3.333,5.333 0.333,-1.666 0.333,-3.666 0.333,-5.333 -1.333,2.333 -3.333,3.667 -5.667,4.667 0.667,-1 0.667,-2.334 1.334,-3.334 C 436,418 434,419.667 432.667,421.667 433,421 433.334,420 433.667,419 c -2.333,0 -5,1 -6.333,3 0.333,-1.667 -0.334,-3.333 -0.334,-4.667 -1,1.667 -2.333,3 -3.666,4 C 423.334,420 423,419 423,418 c -1,1.333 -2.666,2.667 -4,3.333 0.334,-1.333 0,-2.333 0.334,-3 -1.667,0.334 -3.334,1.667 -4.667,3 0,-1.333 -0.667,-3 -1,-4.333 -1.333,1.667 -3,3 -5,4.333 1,-1 1.333,-2.666 1.667,-3.666 -2.334,0 -4,2 -5.334,3.666 0,-1.666 -0.666,-3.333 -1,-4.666 -1,2.333 -3.333,4.333 -6,4.333 0.667,-0.667 1,-2.333 1.334,-3.333 -1.667,1 -3.334,1.666 -5,2.666 0.333,-1.333 -0.667,-3 -0.334,-4.333 -1.333,2.333 -3.333,4.333 -5.666,5.333 C 389,420 388.667,418 389,417 c -1.666,0.667 -2.666,0.667 -3.666,2.667 0,-1.334 -0.334,-2.667 -0.334,-4 -0.666,2.333 -2.666,5 -5,6 0.334,-1 0.334,-2.667 0.334,-4 -0.667,1 -2.334,1.666 -3,3 -0.334,-1 -1,-2.667 -1.334,-3.667 -1,1.333 -2.333,3 -3.666,4 0.333,-1 0.333,-2.667 0.333,-4 -1,1 -2.333,2 -3,3.667 0,-1.334 -1,-2.667 -1.333,-3.667 -0.667,1.667 -2,3.333 -3.667,4.333 0.247,-0.989 0.128,-1.98 0.186,-2.97 0.047,-0.288 0.103,-0.575 0.147,-0.863 -0.013,0.013 -0.025,0.022 -0.039,0.034 0.014,-0.067 0.023,-0.134 0.039,-0.201 -0.266,0.304 -0.537,0.591 -0.812,0.87 -1.738,1.31 -3.526,1.432 -5.688,2.297 1,-1 1.5,-2.5 2,-3.5 -2.5,1.5 -5,3 -8,4 0.5,-1.5 1,-3.5 1.5,-4.5 -2,2 -4,3 -5.5,4 0.5,-1 0.5,-2.5 1,-3.5 -3,2 -6,4 -10,4 0.5,-1 0.5,-2.5 1,-3.5 -1.5,2.5 -3.5,3.5 -6,5 0.5,-1 0,-2.5 0,-4 -1.5,2.5 -4.5,3.5 -7,3.5 0.5,-1 0.5,-3 1,-4 -1.5,1 -4.5,1.5 -6,2.5 0.5,-1.5 0.5,-3 1,-4.5 -3,2.5 -6.5,4 -10,4.5 0.5,-1 1,-2 1,-3 -1,1.5 -3.5,2.5 -5,4.5 0,-1.5 -0.5,-3 -0.5,-4.5 -1.5,3 -4.5,4.5 -7.5,4.5 1,-2 0.5,-4.5 1.5,-6 -1.5,1.5 -3.5,2.5 -4.5,4 0,-0.5 -0.5,-2 -0.5,-3 -1,1.5 -3,2.5 -4,4 1,-1.5 1,-3 1.5,-4 -1.5,1.5 -3.5,2.5 -5,4 0,-1.5 -1,-3.5 -1,-5 -1,1.5 -3,3 -4,4 0.5,-1.5 0,-3.5 0.5,-5 -1.5,1.5 -4,3 -5,4.5 0,-1.5 -1.5,-3 -1.5,-4.5 -1,3 -3.5,5.5 -6,7 1,-2 1,-4 1.5,-5.5 -1.5,1.5 -4,2.5 -5.5,4 1,-2 1,-3.5 1.5,-5.5 -3,3.5 -7.5,7.5 -12,8.5 l 2.5,-1 c 1,-2.5 1,-4.5 0.5,-7 -2.347,1.592 -4.479,3.426 -6.441,5.425 0.818,-1.532 1.081,-3.088 0.775,-4.925 -1,2 -2.667,4.333 -5,5 0.666,-0.667 0.666,-1.333 1.666,-2.333 -2,0.666 -4,1.666 -6,2.333 0.667,-1.667 1,-3 2.333,-4.333 -3,0.666 -5,2.666 -7.333,2.666 0.333,-1 0,-2 0.667,-3 -2,2 -4.334,3.334 -6.667,5 0.333,-0.666 0.667,-1.666 1,-2.333 -1.667,-0.333 -3,0.333 -4.333,2 0.666,-1.667 0.666,-3 0.333,-4.667 -1,2 -2,4.334 -3.667,5.667 0,-1 -0.333,-3 0,-4.333 -2.333,1 -4.333,3.333 -7,3 1,-0.667 2.334,-2.667 3,-3.667 -2.666,-0.333 -4.333,2 -5.666,4 0.333,-1.333 -0.334,-3 0,-4.333 -0.667,1.333 -2,2.666 -2.334,4 C 217,420 216,418.333 216,417.333 c -1.333,1.667 -3,3.667 -5,4 0.667,-0.666 1,-2.666 1.667,-3.666 -2,0.333 -3.667,1.333 -5,2.666 0.333,-1.333 -0.334,-3 -0.334,-4.333 -0.666,1.333 -2,3.333 -3,4.333 0,-0.666 -0.666,-2 -0.666,-3 -0.334,0.667 -2,2.334 -2.334,3.667 -0.666,-1.667 -1,-3 0,-4.667 -3,1 -5,3.667 -7.666,5 0.333,-1.666 0.666,-3 1.666,-4.666 -1.666,1.333 -3.666,2.666 -5.333,4 1,-1.667 1,-3 0.667,-4.667 -1,1.667 -2,3.667 -3.334,5.333 0.334,-1.666 0.334,-3.666 0.334,-5.333 -1.334,2.333 -3.334,3.667 -5.667,4.667 0.667,-1 0.667,-2.334 1.333,-3.334 C 181,418 179,419.667 177.667,421.667 178,421 178.333,420 178.667,419 c -2.334,0 -5,1 -6.334,3 0.334,-1.667 -0.333,-3.333 -0.333,-4.667 -1,1.667 -2.333,3 -3.667,4 C 168.333,420 168,419 168,418 c -1,1.333 -2.667,2.667 -4,3.333 0.333,-1.333 0,-2.333 0.333,-3 -1.666,0.334 -3.333,1.667 -4.666,3 0,-1.333 -0.667,-3 -1,-4.333 -1.334,1.667 -3,3 -5,4.333 1,-1 1.333,-2.666 1.666,-3.666 -2.333,0 -4,2 -5.333,3.666 0,-1.666 -0.667,-3.333 -1,-4.666 -1,2.333 -3.333,4.333 -6,4.333 0.667,-0.667 1,-2.333 1.333,-3.333 -1.666,1 -3.333,1.666 -5,2.666 0.334,-1.333 -0.666,-3 -0.333,-4.333 -1.333,2.333 -3.333,4.333 -5.667,5.333 C 134,420 133.667,418 134,417 c -1.667,0.667 -2.667,0.667 -3.667,2.667 0,-1.334 -0.333,-2.667 -0.333,-4 -0.667,2.333 -2.667,5 -5,6 0.333,-1 0.333,-2.667 0.333,-4 -0.666,1 -2.333,1.666 -3,3 -0.333,-1 -1,-2.667 -1.333,-3.667 -1,1.333 -2.333,3 -3.667,4 0.334,-1 0.334,-2.667 0.334,-4 -1,1 -2.334,2 -3,3.667 0,-1.334 -1,-2.667 -1.334,-3.667 -0.666,1.667 -2,3.333 -3.666,4.333 0.333,-1.333 0,-2.666 0.333,-4 -2.047,2.341 -4.352,3.91 -6.913,5.161 0.345,-1.661 0.66,-3.324 0.913,-4.994 -2,2 -4,2 -6.5,3 1,-1 1.5,-2.5 2,-3.5 -2.5,1.5 -5,3 -8,4 0.5,-1.5 1,-3.5 1.5,-4.5 -2,2 -4,3 -5.5,4 0.5,-1 0.5,-2.5 1,-3.5 -3,2 -6,4 -10,4 0.5,-1 0.5,-2.5 1,-3.5 -1.5,2.5 -3.5,3.5 -6,5 0.5,-1 0,-2.5 0,-4 -1.5,2.5 -4.5,3.5 -7,3.5 0.5,-1 0.5,-3 1,-4 -1.5,1 -4.5,1.5 -6,2.5 0.5,-1.5 0.5,-3 1,-4.5 -3,2.5 -6.5,4 -10,4.5 0.5,-1 1,-2 1,-3 -1,1.5 -3.5,2.5 -5,4.5 0,-1.5 -0.5,-3 -0.5,-4.5 -1.5,3 -4.5,4.5 -7.5,4.5 1,-2 0.5,-4.5 1.5,-6 -1.5,1.5 -3.5,2.5 -4.5,4 0,-0.5 -0.5,-2 -0.5,-3 -1,1.5 -3,2.5 -4,4 1,-1.5 1,-3 1.5,-4 -1.5,1.5 -3.5,2.5 -5,4 0,-1.5 -1,-3.5 -1,-5 -1,1.5 -3,3 -4,4 0.5,-1.5 0,-3.5 0.5,-5 -1.5,1.5 -4,3 -5,4.5 0,-1.5 -1.5,-3 -1.5,-4.5 -1,3 -3.5,5.5 -6,7 1,-2 1,-4 1.5,-5.5 -1.5,1.5 -4,2.5 -5.5,4 1,-2 1,-3.5 1.5,-5.5 -3,3.5 -7.5,7.5 -12,8.5 l 2.5,-1 c 1,-2.5 1,-4.5 0.5,-7 -14,9.5 -21,27 -23,43.5 -2,14 3,28 13,37.5 16.5,15 40,16.5 61.5,12.5 3.644,-0.656 6.971,-1.53 10.022,-2.606 7.219,2.742 15.64,2.532 24.812,2.939 C 101,510 115.667,511 129,507 c 10.667,-3.333 163,6 184.5,2 2.484,-0.447 4.819,-0.997 7.025,-1.641 6.515,1.733 13.882,1.622 21.809,1.974 C 356,510 370.667,511 384,507 c 10.667,-3.333 120.333,13.166 126,6.5 7.666,-9.334 -4,-79.5 1.334,-87.5 2.333,-3 2.333,-6 4,-9 -2,1.333 -3.667,2.667 -5,4.333 z"
   id="path15" />
		</g>
	</g>
</g>
</svg>
