<?xml version="1.0" encoding="UTF-8" standalone="no"?>
<!-- Generator: Adobe Illustrator 27.5.0, SVG Export Plug-In . SVG Version: 6.00 Build 0)  -->

<svg
preserveAspectRatio="none"

   version="1.1"
   x="0px"
   y="0px"
   viewBox="0 0 500 500"
   xml:space="preserve"
   id="svg16"
   sodipodi:docname="28462503_7447126.svg"
   inkscape:export-filename="..\Desktop\keeperedit2.svg"
   inkscape:export-xdpi="77.183998"
   inkscape:export-ydpi="77.183998"
   xmlns:inkscape="http://www.inkscape.org/namespaces/inkscape"
   xmlns:sodipodi="http://sodipodi.sourceforge.net/DTD/sodipodi-0.dtd"
   xmlns:xlink="http://www.w3.org/1999/xlink"
   xmlns="http://www.w3.org/2000/svg"
   xmlns:svg="http://www.w3.org/2000/svg"><defs
   id="defs16" /><sodipodi:namedview
   id="namedview16"
   pagecolor="#ffffff"
   bordercolor="#000000"
   borderopacity="0.25"
   inkscape:showpageshadow="2"
   inkscape:pageopacity="0.0"
   inkscape:pagecheckerboard="0"
   inkscape:deskcolor="#d1d1d1" />
<g
   id="BACKGROUND">
	<rect
   style="fill:#f4efd9"
   width="500"
   height="500"
   id="rect1"
   ry="0"
   x="0"
   y="0" />
</g>
<g
   id="OBJECTS">
	<ellipse
   style="fill:#231f20;stroke-width:0.231201"
   cx="478.84656"
   cy="345.29169"
   id="circle1"
   rx="7.1035638"
   ry="3.894619" />
	<path
   style="fill:none;stroke:#231f20;stroke-miterlimit:10"
   d="M 189,488"
   id="path1" />
	<g
   id="g13"
   transform="matrix(0.31224457,0,0,0.17119204,343.0617,323.84987)">
		<path
   style="fill:#231f20"
   d="m 56.317,401.986 c -3.111,-4.527 2.769,-11.102 5.961,-13.828 -6.366,2.376 -12.965,7.71 -6.414,14.139 z"
   id="path2" />
		<path
   style="fill:#231f20"
   d="m 62.548,392.238 c 2.767,-0.436 4.957,-2.873 6.05,-5.357 3.92,3.57 -2.638,5.278 -5.071,5.616 z"
   id="path3" />
		<path
   style="fill:#231f20"
   d="m 70.592,370.581 c 1.088,-5.014 6.31,-6.337 10.18,-4.197 z"
   id="path4" />
		<path
   style="fill:#231f20"
   d="m 79.232,371.708 c 0.101,2.863 4.515,2.496 4.08,-0.271 z"
   id="path5" />
		<path
   style="fill:#231f20"
   d="m 58.986,377.357 c -0.22,-2.648 1.614,-4.442 3.979,-3.135 z"
   id="path6" />
		<path
   style="fill:#231f20"
   d="m 44.33,303.989 c -2.666,-4.307 1.678,-10.079 5.742,-12.049 z"
   id="path7" />
		<path
   style="fill:#231f20"
   d="m 56.537,290.544 c 3.401,1.439 5.485,-3.816 5.675,-6.611 z"
   id="path8" />
		<path
   style="fill:#231f20"
   d="m 54.583,278.944 c -0.748,-2.341 2.388,-4.632 1.724,-1.222 z"
   id="path9" />
		<path
   style="fill:#231f20"
   d="m 33.378,310.069 c -1.534,-1.573 -1.344,-4.367 0.915,-4.883 z"
   id="path10" />
		<path
   style="fill:#231f20"
   d="m 34.579,294.624 c -0.184,-3.965 4.125,-0.648 0.696,0.242 z"
   id="path11" />
		<path
   style="fill:#231f20"
   d="m 45.934,318.848 c 4.466,-3.13 1.425,4.136 -0.242,0.696 z"
   id="path12" />
		<path
   style="fill:#231f20"
   d="m 38.488,358.064 c -1.474,-0.737 -1.229,-2.457 0.737,-2.702 0.491,0.983 0.246,1.965 -0.491,2.702 z"
   id="path13" />
	</g>
	<path
   transform="scale(1)"
   style="fill:#231f20;stroke-width:0.231201"
   d="m 475.64606,357.01833 c 0.54642,-0.34238 1.95152,-0.98435 2.10765,-1.45513 0.15612,-0.42798 -0.18329,-0.71918 -1.04196,-0.59078 0.3903,-0.77037 -0.98763,-0.69316 -1.69018,-0.39357 -0.78061,0.34238 -1.17092,0.98435 -1.87347,1.45513 0.23418,-0.47078 1.24898,-1.54073 0.62449,-1.92591 -1.17091,-0.72757 -2.34183,0.77036 -2.49796,1.24114 0.17143,0.48208 0.0621,0.9972 -0.28414,1.45958 0.31537,0.14363 0.51177,0.34068 0.61419,0.54234 0.0584,0.1123 0.0852,0.22854 0.0859,0.34358 -0.006,0.11504 -0.0284,0.2306 -0.10366,0.33639 0.0219,-0.22477 -0.0675,-0.4403 -0.20827,-0.63837 -0.14707,-0.19533 -0.36033,-0.38005 -0.65852,-0.4891 l -0.10804,-0.0395 0.0518,-0.0654 c 0.17923,-0.22546 0.31287,-0.4617 0.41216,-0.70394 0.0484,-0.1212 0.0896,-0.24395 0.12052,-0.36823 0.039,-0.12412 0.0543,-0.24994 0.0778,-0.37731 -2.49796,-0.94156 -3.35664,2.1399 -2.88827,2.91027 -0.46743,0.21963 -2.47516,1.03399 -2.46017,1.47927 -0.52176,0.26038 -0.97296,0.54593 -1.91125,0.83182 -4.205,1.28069 -6.01071,2.31109 -10.4602,2.99586 -1.78666,0.27493 -3.27856,0.47078 -5.07397,0.47078 -0.62449,0 -0.78061,0.12839 -1.32704,0 -0.31224,-0.0428 -0.62449,-0.34239 -0.93673,-0.42798 -0.26104,-0.0358 -0.50803,-0.0404 -0.74752,-0.0257 0.14519,0.33433 0.26759,0.67295 0.34004,1.01551 0.0759,0.3482 0.12739,0.7 0.10678,1.05351 l -0.006,0.0947 -0.1708,-0.0224 c -0.20359,-0.0267 -0.40249,-0.0741 -0.57391,-0.14124 -0.17204,-0.0668 -0.31818,-0.14928 -0.4437,-0.23607 -0.20483,-0.14107 -0.36158,-0.29257 -0.52238,-0.4362 -0.0222,0.0165 -0.0468,0.0311 -0.0684,0.0485 -0.0637,0.0495 -0.12083,0.10408 -0.21451,0.16075 -0.0874,0.0599 -0.26665,0.10186 -0.40716,0.0981 -0.14238,-3.9e-4 -0.26166,-0.0195 -0.37844,-0.0385 l 0.0106,0.002 c -0.30474,-0.0433 -0.51301,-0.15048 -0.70629,-0.24412 -0.19297,-0.0947 -0.37875,-0.19037 -0.60263,-0.23727 -0.30163,-0.075 -0.63698,-0.11351 -0.97296,-0.14894 -0.33722,-0.0344 -0.68225,-0.0558 -1.01885,-0.10032 0.34441,0.0163 0.68787,0.0216 1.03415,0.0368 0.34472,0.0139 0.69412,0.0431 1.0301,0.11264 0.27665,0.049 0.48585,0.14859 0.68756,0.2347 0.20171,0.0865 0.40155,0.17376 0.60981,0.19756 l 0.01,0.002 c 0.10148,0.0151 0.20484,0.0276 0.29039,0.0259 0.0868,-0.003 0.13458,-0.0142 0.19391,-0.0512 0.11677,-0.0758 0.23887,-0.20252 0.40092,-0.29993 l 0.13239,-0.0796 0.1096,0.0888 c 0.22232,0.18009 0.3978,0.36703 0.62199,0.52556 0.18298,0.1313 0.40997,0.23402 0.67445,0.29496 0.0221,-0.30883 0.0215,-0.61971 -0.0128,-0.93043 -0.0403,-0.34084 -0.0918,-0.68254 -0.15924,-1.02441 -0.33191,0.0207 -0.64915,0.0794 -0.96577,0.1539 l -0.44714,-0.39596 c 0.23013,-0.20064 0.53769,-0.36807 0.91551,-0.46017 0.46837,-0.12839 1.01479,0.0428 1.56122,-0.17119 0.31225,-0.17119 1.01479,-0.77037 1.24898,-0.98436 0.31224,-0.34238 0.31224,-0.59917 0.54643,-0.94155 0.23418,-0.29959 0.62448,-0.51358 0.78061,-0.85596 0.15612,-0.29959 -0.0781,-0.68477 0,-0.98436 0.15612,-0.42798 0.46836,-0.55637 0.70255,-0.94155 -0.23419,0.0428 -0.54643,-0.0428 -0.78062,0 0.46837,-0.59918 0.39031,-2.3111 -1.17091,-1.11275 -0.23762,-0.13028 -0.51021,-0.21827 -0.80591,-0.27322 0.27478,-0.13302 0.54518,-0.2686 0.80591,-0.41155 1.56122,-0.85596 3.04439,-1.66912 4.83979,-2.31109 0.5839,-0.25165 1.85786,-0.61339 2.93073,-1.00011 -0.10054,-0.0594 -0.19265,-0.12309 -0.27758,-0.18882 -0.16144,-0.12343 -0.29477,-0.25628 -0.41498,-0.39203 -0.11459,-0.1373 -0.21545,-0.27802 -0.28851,-0.42405 -0.074,-0.14534 -0.12771,-0.29564 -0.12803,-0.44869 0.24855,0.27134 0.46837,0.53498 0.69881,0.79998 0.22793,0.26586 0.45275,0.52625 0.69818,0.79758 0.65446,0.35523 2.64689,-0.89516 3.13587,-1.15948 1.33235,0.31311 6.79195,0.11453 5.61072,-1.24765 -0.16206,-0.083 -0.36283,-0.11452 -0.56547,-0.11572 -0.20483,-0.002 -0.41092,0.0164 -0.62044,0.0401 -0.10865,0.0122 -0.21451,0.0195 -0.29413,0.0377 -0.0899,0.019 -0.18547,0.0425 -0.28227,0.0685 -0.19577,0.0502 -0.39561,0.11282 -0.69443,0.11898 -0.31567,-0.0236 -0.56142,-0.11367 -0.78654,-0.19259 -0.22513,-0.082 -0.44152,-0.16092 -0.70755,-0.20304 0.27884,-0.0154 0.55954,0.0425 0.80778,0.10118 0.24542,0.0594 0.47961,0.1212 0.7063,0.1301 0.15612,-0.004 0.34971,-0.0604 0.54518,-0.10682 0.10054,-0.0241 0.20358,-0.0508 0.32036,-0.0695 0.0549,-0.009 0.13114,-0.0173 0.18297,-0.0195 l 0.16362,-0.01 c 0.22044,-0.0109 0.45275,-0.0166 0.68101,0.0113 0.0909,0.0111 0.17766,0.0265 0.25947,0.0515 0.0737,0.0224 0.12302,0.0592 0.21139,0.0657 0.0412,0.003 0.0865,-0.003 0.12771,-0.007 0.0884,-0.008 0.17579,-0.0173 0.26291,-0.0283 0.21513,-0.0269 0.42715,-0.0611 0.63541,-0.10066 0.23107,-0.044 0.45807,-0.0948 0.67695,-0.15475 0.20827,-0.057 0.41154,-0.12241 0.59326,-0.2027 0.1527,-0.0675 0.29633,-0.14739 0.38407,-0.24463 0.079,-0.0878 0.0999,-0.18643 0.049,-0.28075 -0.0496,-0.0918 -0.15518,-0.17188 -0.27477,-0.24019 -0.64822,-0.37302 -2.67719,0.0924 -3.55272,0.18147 0.91394,-0.34496 2.11327,-0.50485 2.80052,-0.90287 0.60295,-0.35899 1.01105,-0.98452 -0.42153,-0.83525 0.30475,-0.45845 -0.35003,-0.78902 -1.14094,-0.7392 -0.86836,0.0464 -2.15199,0.7606 -2.81988,1.03074 0.42808,-0.23812 1.6271,-0.91347 1.06288,-1.32588 -0.9205,-0.64334 -1.86036,0.38758 -2.29469,0.66834 -1.04352,0.68237 -3.72101,1.29027 -3.35132,2.4667 -1.06881,0.26449 -3.24266,0.68443 -3.55647,1.32811 -2.82456,0.8373 -4.4601,1.41131 -8.25512,2.4852 -2.25097,0.637 -4.05918,1.71192 -5.93264,2.56787 -0.93674,0.38519 -2.10766,0.81317 -3.04439,1.15555 -0.85867,0.29959 -1.48316,0.64197 -2.34183,0.94156 -1.10098,0.35676 -2.26502,1.11823 -3.16554,1.87815 -1.04477,0.20543 -1.5734,0.59164 -2.45487,1.07491 -1.7954,1.02715 -4.37142,1.54073 -6.24488,2.52508 -0.78062,0.42798 -1.17092,0.72757 -2.18572,0.89876 -1.17091,0.21399 -1.7954,0.0856 -2.57602,0.64197 -0.93673,0.77037 -3.64857,1.11943 -4.44948,1.11275 0.0581,0.0755 0.11865,0.14962 0.17954,0.22358 -0.97108,0.10014 -1.85286,0.15116 -2.91168,0.1188 -2.26377,-0.0428 -4.44949,0 -6.6352,-0.0428 -1.95153,-0.0428 -6.86938,-0.1284 -6.86938,-0.1284 0,0.19824 -0.007,0.39631 -0.0119,0.59473 -3.10995,0.24446 -5.97854,-0.87942 -8.96516,-1.06551 -3.66887,-0.25678 -7.49387,0.214 -11.08468,0.38519 -0.9433,0.0305 -1.88659,0.0395 -2.82988,0.0574 -0.34409,-0.24275 -1.33922,-0.43227 -1.93186,-0.39974 -0.54642,0 -0.85867,0.25679 -1.24897,0.29959 -0.54643,0.0856 -1.09286,0 -1.63929,0 -1.09285,0 -2.18571,0.0428 -3.27856,0.12839 -2.02959,0.17119 -4.29337,0.64197 -5.07398,1.79752 -0.85867,1.28394 1.17091,1.96871 3.35663,1.54073 1.7954,-0.34238 3.12245,-0.94156 5.07397,-1.15555 0.78061,-0.0856 1.87347,0 2.65408,-0.12839 0.48024,-0.0959 0.66665,-0.20629 0.80684,-0.38125 -0.0752,0.009 -0.14988,0.0181 -0.22637,0.0252 -0.12584,0.0132 -0.25324,0.0223 -0.38438,0.0284 -0.13239,0.005 -0.26322,0.01 -0.4362,-0.0157 l -0.18822,-0.0545 c -0.0593,-0.0224 -0.11241,-0.0522 -0.16768,-0.0789 -0.0446,-0.0327 -0.0909,-0.0666 -0.12615,-0.10271 -0.0243,-0.0383 -0.0631,-0.0764 -0.0712,-0.11607 -0.0503,-0.16041 0.0181,-0.31123 0.12427,-0.44219 0.10523,-0.13233 0.25229,-0.25011 0.42091,-0.35488 0.16924,-0.10409 0.36501,-0.19687 0.58671,-0.26227 -0.32817,0.20492 -0.58921,0.43346 -0.74721,0.67364 -0.0727,0.11933 -0.12115,0.24378 -0.079,0.35163 0.0287,0.10871 0.16736,0.1878 0.35783,0.24327 0.0837,0.0156 0.20514,0.0207 0.3213,0.0245 0.12178,0.003 0.24636,0.002 0.37219,0.003 0.23294,0 0.47212,-0.002 0.70911,0.0145 2.53886,-0.10769 4.95876,-0.14569 7.47045,0.44458 1.87347,0.38518 3.59082,0.59917 5.62041,0.55637 1.01479,0 1.63928,-0.0428 2.57601,0.17119 0.93674,0.214 1.63929,0.47078 2.73215,0.55638 1.57309,0.10152 4.35206,0.17291 6.35542,0.21416 0.002,0.003 0.004,0.005 0.007,0.008 -0.11678,-0.20595 -0.23168,-0.41241 -0.3391,-0.62074 -0.18672,-0.34359 -0.27696,-0.70446 -0.31723,-1.05951 -0.0403,-0.35677 -0.0153,-0.71302 0.045,-1.0667 0.0603,0.35385 0.11647,0.706 0.19672,1.0542 0.0896,0.3482 0.18797,0.69162 0.37625,1.02596 0.17018,0.34015 0.35159,0.6798 0.49928,1.02612 0.074,0.17461 0.14395,0.35248 0.18891,0.53206 0.0331,0.0699 0.0678,0.13867 0.0918,0.21348 0.0781,0.47078 0.0781,0.94156 0.0781,1.41234 1.82351,-0.0317 8.11836,0.21398 9.99183,0.81316 -0.93673,0.72756 -6.16683,2.1399 -6.2449,2.65347 0,0.42798 0.54643,0.89876 0.85867,1.28395 0.22139,0.29119 0.44058,0.57315 0.66103,0.85082 -0.26229,0.26209 -0.5533,0.51118 -0.89521,0.7327 -1.63928,1.02715 -3.82499,0.77037 -6.0107,0.98435 -1.71735,0.17119 -3.20051,0.55638 -4.68367,1.06995 -1.79541,0.64197 -3.20051,0.85596 -5.38622,0.85596 -0.2932,0 -0.96546,-0.0469 -1.63647,-0.0794 -0.83463,-0.44852 -2.3509,-0.77807 -3.35945,-0.60533 -0.85867,0.17119 -1.01479,0.55637 -1.17091,1.06995 -0.23419,0.68477 -0.0781,0.77036 -1.09286,1.19834 -1.4051,0.68477 -3.66887,0.85596 -4.91785,1.58353 -0.93673,0.55637 -1.17092,1.96871 -0.85867,2.65347 1.11721,0.69641 4.37142,-1.66912 6.32295,-2.1399 1.47879,-0.34734 2.70654,-0.59797 3.68511,-1.12062 0.23293,-0.0476 0.48023,-0.0895 0.65103,-0.16777 0.1683,-0.0755 0.22731,-0.19687 0.2907,-0.32629 0.0331,-0.064 0.0578,-0.12583 0.0787,-0.19259 0.0231,-0.0657 0.0528,-0.13422 0.0562,-0.18677 0.002,-0.0267 -0.004,-0.0418 -0.015,-0.0493 -0.01,-0.009 -0.0456,-0.0236 -0.089,-0.0373 -0.0893,-0.0274 -0.20109,-0.0538 -0.31099,-0.0796 -0.15581,-0.0296 -0.39874,0.014 -0.6832,-0.004 -0.14675,-0.006 -0.32254,-0.0657 -0.38781,-0.14295 -0.0827,-0.0844 -0.0571,-0.17667 -0.0137,-0.24532 0.0952,-0.14071 0.26228,-0.24463 0.43589,-0.33998 0.18079,-0.0906 0.36845,-0.18095 0.59514,-0.23197 -0.19203,0.0798 -0.35034,0.17873 -0.49179,0.28213 -0.13832,0.10306 -0.2679,0.21467 -0.32129,0.32629 -0.0247,0.0555 -0.0203,0.10648 0.0215,0.13798 0.0503,0.0406 0.10116,0.0562 0.19515,0.0609 0.19265,0.0117 0.43277,-0.0478 0.75938,-1.7e-4 0.11584,0.0265 0.23199,0.0503 0.35752,0.0885 0.0618,0.0214 0.13332,0.045 0.19234,0.0936 0.059,0.0505 0.0643,0.10683 0.0603,0.14723 -0.0106,0.0834 -0.0431,0.14773 -0.0706,0.21501 -0.0269,0.0668 -0.064,0.13679 -0.10835,0.20218 -0.0412,0.0659 -0.0896,0.13216 -0.158,0.19756 -0.0665,0.0656 -0.16955,0.12736 -0.29195,0.16486 -0.0971,0.0288 -0.19578,0.0455 -0.29476,0.0579 2.85173,-0.18198 5.74499,-0.45075 8.58111,-0.56186 1.71734,-0.0856 3.43469,0 5.07397,-0.25678 1.79541,-0.25679 3.04439,-0.94156 4.99592,-1.06995 1.63928,-0.0856 2.57601,0 3.825,-0.64197 0.20763,-0.0988 0.40654,-0.20732 0.60231,-0.3191 0.35347,-0.10734 0.691,-0.23642 1.01948,-0.37748 0.10242,-0.23146 0.0112,-0.46582 -0.13582,-0.68101 -0.14083,-0.21827 -0.33879,-0.42541 -0.55174,-0.62742 -0.21639,-0.20132 -0.43714,-0.40178 -0.66539,-0.60225 -0.11116,-0.10117 -0.22201,-0.20337 -0.32661,-0.309 -0.10179,-0.10374 -0.20609,-0.20286 -0.31631,-0.30232 -0.43683,-0.4006 -0.98107,-0.75291 -1.51532,-1.13261 -0.50989,-0.39203 -0.82776,-0.83285 -1.44132,-1.16976 0.35003,0.14004 0.62605,0.32972 0.88397,0.5194 0.25166,0.1931 0.48023,0.39271 0.74595,0.57195 0.55954,0.3465 1.13813,0.71353 1.59182,1.12165 0.11459,0.10135 0.22044,0.208 0.32099,0.31226 0.098,0.1022 0.20546,0.2032 0.31318,0.30489 0.21045,0.20492 0.43371,0.40829 0.62355,0.62263 0.19109,0.21347 0.36814,0.43328 0.48585,0.66491 0.10242,0.22973 0.16143,0.48516 -0.0125,0.70633 1.03103,-0.4427 1.96683,-1.00952 2.9835,-1.44314 1.56122,-0.68477 3.20051,-1.41234 4.60561,-2.2255 1.5556,-0.80546 2.32872,-1.02459 3.51275,-1.71192 0.0559,-0.0306 0.11678,-0.0584 0.17891,-0.0851 0.11085,-0.0478 0.22638,-0.0921 0.34285,-0.13559 0.14144,-0.0529 0.28477,-0.10426 0.4284,-0.15527 0.16018,-0.0568 0.32098,-0.11333 0.48117,-0.17016 0.16767,-0.0594 0.33472,-0.11933 0.50052,-0.18044 0.16425,-0.0604 0.32692,-0.12223 0.48679,-0.18609 0.14988,-0.0599 0.29757,-0.12172 0.43965,-0.18694 0.12552,-0.0577 0.24729,-0.11795 0.3597,-0.18334 0.0921,-0.0538 0.17892,-0.11111 0.24636,-0.17514 0.0278,-0.0264 0.0525,-0.0541 0.0703,-0.083 0.008,-0.0132 0.015,-0.0265 0.02,-0.0401 0.0103,-0.0277 -0.003,-0.0471 -0.0237,-0.0726 -0.0144,-0.018 -0.0297,-0.0359 -0.0456,-0.0536 -0.0318,-0.0354 -0.0665,-0.0704 -0.10273,-0.1046 -0.0709,-0.0669 -0.14707,-0.13267 -0.22763,-0.19636 -0.15612,-0.12377 -0.31662,-0.24617 -0.48366,-0.36686 -0.32911,-0.24429 -0.67289,-0.48276 -0.97983,-0.74914 0.48336,0.17205 0.88241,0.39837 1.22993,0.64659 0.1683,0.12651 0.32567,0.25919 0.4462,0.40385 0.0656,0.0782 0.1224,0.16177 0.15862,0.24737 0.21233,-0.0606 0.54986,-0.11727 0.8977,-0.18009 -0.30131,-0.20013 -0.58108,-0.40881 -0.86491,-0.61304 -0.60576,-0.46017 -1.32455,-0.85905 -2.0602,-1.26288 -0.72752,-0.40453 -1.47597,-0.80426 -2.14137,-1.24748 -0.33098,-0.22204 -0.64634,-0.45144 -0.93361,-0.69093 -0.27478,-0.24412 -0.53019,-0.49423 -0.73939,-0.75565 0.53113,0.49098 1.15468,0.94396 1.85286,1.36098 0.69911,0.41651 1.446,0.8094 2.1829,1.21273 0.36595,0.20303 0.72847,0.40795 1.07912,0.62159 0.35127,0.21451 0.66882,0.44682 0.95765,0.68426 0.57671,0.47163 1.13251,0.94549 1.89033,1.33581 0.1658,0.0676 0.311,0.11299 0.41653,0.12035 0.46837,0.0428 2.52356,-2.43949 6.2705,-2.82467 1.72421,-0.17718 3.43469,-0.55638 5.07397,-0.98435 1.71735,-0.38519 3.12245,-1.06996 4.76173,-1.54073 1.71735,-0.55638 3.59081,-1.02716 5.46428,-1.49793 3.74694,-0.98436 6.6352,-0.89876 10.53826,-1.66912 3.43125,-0.69111 7.74054,-3.24101 10.50765,-4.96389 -0.23543,-0.0681 -0.4462,-0.15578 -0.64197,-0.24892 -0.46056,-0.22682 -0.82745,-0.48926 -1.17467,-0.76454 0.26447,0.0878 0.49522,0.19858 0.72004,0.30798 0.22575,0.10922 0.43964,0.22306 0.66196,0.32886 0.21857,0.10785 0.44339,0.20988 0.68256,0.29616 0.22201,0.0769 0.45994,0.13918 0.73877,0.14825 1.16093,-0.15664 2.07737,-1.27281 2.63473,-1.82302 2.10764,0.29958 3.43469,-1.11275 4.76172,-1.62633 0.54643,-0.21399 2.49796,-0.64197 1.4051,-1.19834 -0.70161,-0.3429 -2.02865,0.25627 -2.49702,0.47026 z m -13.04152,-8.44901 c 0.32661,-0.12702 0.65571,-0.25353 0.99481,-0.37559 0.34222,-0.11898 0.69412,-0.23436 1.0735,-0.32304 0.37532,-0.0899 0.78717,-0.15391 1.19714,-0.1474 -0.39343,0.0598 -0.74408,0.16041 -1.0888,0.26655 -0.34221,0.10905 -0.67694,0.227 -1.01229,0.34769 -0.33816,0.11812 -0.67695,0.2395 -1.03603,0.34546 -0.35596,0.10717 -0.7369,0.20098 -1.13751,0.24669 0.35659,-0.10819 0.67914,-0.23607 1.00918,-0.36036 z m 11.11622,8.03524 c 0.41091,-0.31995 0.89083,-0.60328 1.38668,-0.87736 0.50271,-0.27014 1.02104,-0.53172 1.60431,-0.75478 -0.41373,0.32098 -0.8924,0.60345 -1.38668,0.87735 -0.50115,0.27015 -1.01823,0.53087 -1.60431,0.75479 z"
   id="path14" />
	<g
   id="g16">
		<defs
   id="defs14"><rect
     id="SVGID_1_"
     width="500"
     height="500"
     x="0"
     y="0" /></defs>
		<clipPath
   id="SVGID_00000150076274393787873180000005842636458881573023_">
			<use
   xlink:href="#SVGID_1_"
   style="overflow:visible"
   id="use14" />
		</clipPath>
		<g
   clip-path="url(#SVGID_00000150076274393787873180000005842636458881573023_)"
   id="g15">
			<path
   style="fill:#231f20"
   d="m 510.334,421.333 c 1,-1.666 1.333,-3.333 1,-5.333 -1,2 -2.667,4.333 -5,5 0.666,-0.667 0.666,-1.333 1.666,-2.333 -2,0.666 -4,1.666 -6,2.333 0.667,-1.667 1,-3 2.334,-4.333 -3,0.666 -5,2.666 -7.334,2.666 0.334,-1 0,-2 0.667,-3 -2,2 -4.333,3.334 -6.667,5 0.334,-0.666 0.667,-1.666 1,-2.333 -1.666,-0.333 -3,0.333 -4.333,2 0.667,-1.667 0.667,-3 0.333,-4.667 -1,2 -2,4.334 -3.666,5.667 0,-1 -0.334,-3 0,-4.333 -2.334,1 -4.334,3.333 -7,3 1,-0.667 2.333,-2.667 3,-3.667 -2.667,-0.333 -4.334,2 -5.667,4 0.333,-1.333 -0.333,-3 0,-4.333 -0.667,1.333 -2,2.666 -2.333,4 C 472,420 471,418.333 471,417.333 c -1.333,1.667 -3,3.667 -5,4 0.667,-0.666 1,-2.666 1.667,-3.666 -2,0.333 -3.667,1.333 -5,2.666 0.333,-1.333 -0.333,-3 -0.333,-4.333 -0.667,1.333 -2,3.333 -3,4.333 0,-0.666 -0.667,-2 -0.667,-3 -0.333,0.667 -2,2.334 -2.333,3.667 -0.667,-1.667 -1,-3 0,-4.667 -3,1 -5,3.667 -7.667,5 0.333,-1.666 0.667,-3 1.667,-4.666 -1.667,1.333 -3.667,2.666 -5.334,4 1,-1.667 1,-3 0.667,-4.667 -1,1.667 -2,3.667 -3.333,5.333 0.333,-1.666 0.333,-3.666 0.333,-5.333 -1.333,2.333 -3.333,3.667 -5.667,4.667 0.667,-1 0.667,-2.334 1.334,-3.334 C 436,418 434,419.667 432.667,421.667 433,421 433.334,420 433.667,419 c -2.333,0 -5,1 -6.333,3 0.333,-1.667 -0.334,-3.333 -0.334,-4.667 -1,1.667 -2.333,3 -3.666,4 C 423.334,420 423,419 423,418 c -1,1.333 -2.666,2.667 -4,3.333 0.334,-1.333 0,-2.333 0.334,-3 -1.667,0.334 -3.334,1.667 -4.667,3 0,-1.333 -0.667,-3 -1,-4.333 -1.333,1.667 -3,3 -5,4.333 1,-1 1.333,-2.666 1.667,-3.666 -2.334,0 -4,2 -5.334,3.666 0,-1.666 -0.666,-3.333 -1,-4.666 -1,2.333 -3.333,4.333 -6,4.333 0.667,-0.667 1,-2.333 1.334,-3.333 -1.667,1 -3.334,1.666 -5,2.666 0.333,-1.333 -0.667,-3 -0.334,-4.333 -1.333,2.333 -3.333,4.333 -5.666,5.333 C 389,420 388.667,418 389,417 c -1.666,0.667 -2.666,0.667 -3.666,2.667 0,-1.334 -0.334,-2.667 -0.334,-4 -0.666,2.333 -2.666,5 -5,6 0.334,-1 0.334,-2.667 0.334,-4 -0.667,1 -2.334,1.666 -3,3 -0.334,-1 -1,-2.667 -1.334,-3.667 -1,1.333 -2.333,3 -3.666,4 0.333,-1 0.333,-2.667 0.333,-4 -1,1 -2.333,2 -3,3.667 0,-1.334 -1,-2.667 -1.333,-3.667 -0.667,1.667 -2,3.333 -3.667,4.333 0.247,-0.989 0.128,-1.98 0.186,-2.97 0.047,-0.288 0.103,-0.575 0.147,-0.863 -0.013,0.013 -0.025,0.022 -0.039,0.034 0.014,-0.067 0.023,-0.134 0.039,-0.201 -0.266,0.304 -0.537,0.591 -0.812,0.87 -1.738,1.31 -3.526,1.432 -5.688,2.297 1,-1 1.5,-2.5 2,-3.5 -2.5,1.5 -5,3 -8,4 0.5,-1.5 1,-3.5 1.5,-4.5 -2,2 -4,3 -5.5,4 0.5,-1 0.5,-2.5 1,-3.5 -3,2 -6,4 -10,4 0.5,-1 0.5,-2.5 1,-3.5 -1.5,2.5 -3.5,3.5 -6,5 0.5,-1 0,-2.5 0,-4 -1.5,2.5 -4.5,3.5 -7,3.5 0.5,-1 0.5,-3 1,-4 -1.5,1 -4.5,1.5 -6,2.5 0.5,-1.5 0.5,-3 1,-4.5 -3,2.5 -6.5,4 -10,4.5 0.5,-1 1,-2 1,-3 -1,1.5 -3.5,2.5 -5,4.5 0,-1.5 -0.5,-3 -0.5,-4.5 -1.5,3 -4.5,4.5 -7.5,4.5 1,-2 0.5,-4.5 1.5,-6 -1.5,1.5 -3.5,2.5 -4.5,4 0,-0.5 -0.5,-2 -0.5,-3 -1,1.5 -3,2.5 -4,4 1,-1.5 1,-3 1.5,-4 -1.5,1.5 -3.5,2.5 -5,4 0,-1.5 -1,-3.5 -1,-5 -1,1.5 -3,3 -4,4 0.5,-1.5 0,-3.5 0.5,-5 -1.5,1.5 -4,3 -5,4.5 0,-1.5 -1.5,-3 -1.5,-4.5 -1,3 -3.5,5.5 -6,7 1,-2 1,-4 1.5,-5.5 -1.5,1.5 -4,2.5 -5.5,4 1,-2 1,-3.5 1.5,-5.5 -3,3.5 -7.5,7.5 -12,8.5 l 2.5,-1 c 1,-2.5 1,-4.5 0.5,-7 -2.347,1.592 -4.479,3.426 -6.441,5.425 0.818,-1.532 1.081,-3.088 0.775,-4.925 -1,2 -2.667,4.333 -5,5 0.666,-0.667 0.666,-1.333 1.666,-2.333 -2,0.666 -4,1.666 -6,2.333 0.667,-1.667 1,-3 2.333,-4.333 -3,0.666 -5,2.666 -7.333,2.666 0.333,-1 0,-2 0.667,-3 -2,2 -4.334,3.334 -6.667,5 0.333,-0.666 0.667,-1.666 1,-2.333 -1.667,-0.333 -3,0.333 -4.333,2 0.666,-1.667 0.666,-3 0.333,-4.667 -1,2 -2,4.334 -3.667,5.667 0,-1 -0.333,-3 0,-4.333 -2.333,1 -4.333,3.333 -7,3 1,-0.667 2.334,-2.667 3,-3.667 -2.666,-0.333 -4.333,2 -5.666,4 0.333,-1.333 -0.334,-3 0,-4.333 -0.667,1.333 -2,2.666 -2.334,4 C 217,420 216,418.333 216,417.333 c -1.333,1.667 -3,3.667 -5,4 0.667,-0.666 1,-2.666 1.667,-3.666 -2,0.333 -3.667,1.333 -5,2.666 0.333,-1.333 -0.334,-3 -0.334,-4.333 -0.666,1.333 -2,3.333 -3,4.333 0,-0.666 -0.666,-2 -0.666,-3 -0.334,0.667 -2,2.334 -2.334,3.667 -0.666,-1.667 -1,-3 0,-4.667 -3,1 -5,3.667 -7.666,5 0.333,-1.666 0.666,-3 1.666,-4.666 -1.666,1.333 -3.666,2.666 -5.333,4 1,-1.667 1,-3 0.667,-4.667 -1,1.667 -2,3.667 -3.334,5.333 0.334,-1.666 0.334,-3.666 0.334,-5.333 -1.334,2.333 -3.334,3.667 -5.667,4.667 0.667,-1 0.667,-2.334 1.333,-3.334 C 181,418 179,419.667 177.667,421.667 178,421 178.333,420 178.667,419 c -2.334,0 -5,1 -6.334,3 0.334,-1.667 -0.333,-3.333 -0.333,-4.667 -1,1.667 -2.333,3 -3.667,4 C 168.333,420 168,419 168,418 c -1,1.333 -2.667,2.667 -4,3.333 0.333,-1.333 0,-2.333 0.333,-3 -1.666,0.334 -3.333,1.667 -4.666,3 0,-1.333 -0.667,-3 -1,-4.333 -1.334,1.667 -3,3 -5,4.333 1,-1 1.333,-2.666 1.666,-3.666 -2.333,0 -4,2 -5.333,3.666 0,-1.666 -0.667,-3.333 -1,-4.666 -1,2.333 -3.333,4.333 -6,4.333 0.667,-0.667 1,-2.333 1.333,-3.333 -1.666,1 -3.333,1.666 -5,2.666 0.334,-1.333 -0.666,-3 -0.333,-4.333 -1.333,2.333 -3.333,4.333 -5.667,5.333 C 134,420 133.667,418 134,417 c -1.667,0.667 -2.667,0.667 -3.667,2.667 0,-1.334 -0.333,-2.667 -0.333,-4 -0.667,2.333 -2.667,5 -5,6 0.333,-1 0.333,-2.667 0.333,-4 -0.666,1 -2.333,1.666 -3,3 -0.333,-1 -1,-2.667 -1.333,-3.667 -1,1.333 -2.333,3 -3.667,4 0.334,-1 0.334,-2.667 0.334,-4 -1,1 -2.334,2 -3,3.667 0,-1.334 -1,-2.667 -1.334,-3.667 -0.666,1.667 -2,3.333 -3.666,4.333 0.333,-1.333 0,-2.666 0.333,-4 -2.047,2.341 -4.352,3.91 -6.913,5.161 0.345,-1.661 0.66,-3.324 0.913,-4.994 -2,2 -4,2 -6.5,3 1,-1 1.5,-2.5 2,-3.5 -2.5,1.5 -5,3 -8,4 0.5,-1.5 1,-3.5 1.5,-4.5 -2,2 -4,3 -5.5,4 0.5,-1 0.5,-2.5 1,-3.5 -3,2 -6,4 -10,4 0.5,-1 0.5,-2.5 1,-3.5 -1.5,2.5 -3.5,3.5 -6,5 0.5,-1 0,-2.5 0,-4 -1.5,2.5 -4.5,3.5 -7,3.5 0.5,-1 0.5,-3 1,-4 -1.5,1 -4.5,1.5 -6,2.5 0.5,-1.5 0.5,-3 1,-4.5 -3,2.5 -6.5,4 -10,4.5 0.5,-1 1,-2 1,-3 -1,1.5 -3.5,2.5 -5,4.5 0,-1.5 -0.5,-3 -0.5,-4.5 -1.5,3 -4.5,4.5 -7.5,4.5 1,-2 0.5,-4.5 1.5,-6 -1.5,1.5 -3.5,2.5 -4.5,4 0,-0.5 -0.5,-2 -0.5,-3 -1,1.5 -3,2.5 -4,4 1,-1.5 1,-3 1.5,-4 -1.5,1.5 -3.5,2.5 -5,4 0,-1.5 -1,-3.5 -1,-5 -1,1.5 -3,3 -4,4 0.5,-1.5 0,-3.5 0.5,-5 -1.5,1.5 -4,3 -5,4.5 0,-1.5 -1.5,-3 -1.5,-4.5 -1,3 -3.5,5.5 -6,7 1,-2 1,-4 1.5,-5.5 -1.5,1.5 -4,2.5 -5.5,4 1,-2 1,-3.5 1.5,-5.5 -3,3.5 -7.5,7.5 -12,8.5 l 2.5,-1 c 1,-2.5 1,-4.5 0.5,-7 -14,9.5 -21,27 -23,43.5 -2,14 3,28 13,37.5 16.5,15 40,16.5 61.5,12.5 3.644,-0.656 6.971,-1.53 10.022,-2.606 7.219,2.742 15.64,2.532 24.812,2.939 C 101,510 115.667,511 129,507 c 10.667,-3.333 163,6 184.5,2 2.484,-0.447 4.819,-0.997 7.025,-1.641 6.515,1.733 13.882,1.622 21.809,1.974 C 356,510 370.667,511 384,507 c 10.667,-3.333 120.333,13.166 126,6.5 7.666,-9.334 -4,-79.5 1.334,-87.5 2.333,-3 2.333,-6 4,-9 -2,1.333 -3.667,2.667 -5,4.333 z"
   id="path15" />
		</g>
	</g>
</g>
</svg>
